<svg width="33" height="16" viewBox="0 0 33 16" fill="none" xmlns="http://www.w3.org/2000/svg">
<path d="M32.9828 7.75016C32.7247 6.974 32.1741 6.70665 31.3739 6.70665C22.5381 6.7239 13.7108 6.71528 4.87499 6.71528C4.75454 6.71528 4.62549 6.71528 4.42761 6.71528C4.56527 6.56867 4.65991 6.46518 4.75454 6.37894C6.13972 4.99909 7.52489 3.61924 8.91006 2.23076C9.28001 1.85993 9.40046 1.4201 9.2542 0.928525C9.11654 0.445577 8.781 0.143735 8.2906 0.031622C7.8088 -0.0718668 7.40444 0.0833657 7.0603 0.428329C5.80418 1.67882 4.54806 2.92931 3.29194 4.1798C2.35415 5.1112 1.41637 6.0426 0.487183 6.98262C-0.158083 7.62943 -0.166687 8.3711 0.487183 9.0179C2.67249 11.1998 4.84918 13.3731 7.04309 15.5463C7.62813 16.1241 8.40245 16.15 8.93587 15.6239C9.46929 15.0893 9.43487 14.2958 8.84983 13.7094C7.48187 12.3382 6.11391 10.9756 4.74594 9.61296C4.65991 9.52672 4.56527 9.45773 4.47923 9.38012C4.48783 9.35424 4.49644 9.31975 4.50504 9.29388C4.62549 9.29388 4.73734 9.29388 4.85779 9.29388C13.7022 9.29388 22.5467 9.28525 31.3911 9.3025C32.1913 9.3025 32.7419 9.03515 33 8.25899C32.9828 8.09513 32.9828 7.92265 32.9828 7.75016Z" fill="white"/>
</svg>
