<svg width="46" height="46" viewBox="0 0 46 46" fill="none" xmlns="http://www.w3.org/2000/svg">
<path d="M46 22.2847C46 19.2002 46 16.1158 46 13.0313C45.94 12.8993 45.88 12.7673 45.82 12.6353C45.4359 11.8072 44.7998 11.3031 43.8877 11.2431C43.1316 11.1951 42.3635 11.2071 41.5954 11.2431C40.4432 11.2911 39.5311 12.2752 39.5311 13.4274C39.5311 14.3155 39.5311 15.1916 39.5311 16.0798C39.5311 16.6559 39.243 16.9919 38.775 16.9919C38.3069 16.9919 38.0069 16.6439 38.0069 16.0798C38.0069 15.3597 38.0069 14.6396 38.0069 13.9195C37.9949 13.3434 37.7188 13.0433 37.1547 13.0433C33.7943 13.0313 30.4458 13.0313 27.0853 13.0433C26.5572 13.0433 26.2692 13.3434 26.2452 13.8955C26.2332 14.1835 26.2452 14.4595 26.2332 14.7476C26.2092 15.2157 25.9452 15.5277 25.4771 15.5277C24.3249 15.5517 23.1728 15.5397 22.0206 15.5277C21.5525 15.5157 21.2885 15.2397 21.2405 14.7596C21.2165 14.4715 21.2285 14.1955 21.2165 13.9075C21.1925 13.3074 20.9164 13.0313 20.3164 13.0313C19.2962 13.0193 18.2761 12.9953 17.2559 13.0433C16.0918 13.0914 14.9156 13.1154 13.7754 13.3074C4.73816 14.8076 -1.2867 23.3048 0.237518 32.3901C1.31767 38.811 6.34638 44.1398 12.6953 45.556C13.5714 45.748 14.4595 45.856 15.3477 46C16.0918 46 16.8479 46 17.592 46C17.976 45.94 18.3601 45.892 18.7441 45.832C23.0407 45.2079 26.6173 43.2516 29.2816 39.8431C33.3262 34.6584 34.0223 28.9576 31.55 22.8727C31.3219 22.3087 31.4299 21.8766 31.862 21.6846C32.3061 21.4925 32.7501 21.6846 32.9422 22.2606C33.3502 23.4488 33.7343 24.637 34.0943 25.8372C34.2983 26.5213 34.5504 26.7373 35.2585 26.5933C38.0309 26.0052 40.8153 25.4171 43.5877 24.805C44.7518 24.553 45.4959 23.7969 45.868 22.6687C45.916 22.5367 45.952 22.4047 46 22.2847ZM6.31038 29.5217C6.31038 23.9169 10.895 19.3442 16.4878 19.3562C22.0926 19.3682 26.6293 23.9169 26.6293 29.5097C26.6293 35.0905 22.1046 39.6391 16.4998 39.6751C10.931 39.7231 6.32238 35.1265 6.31038 29.5217Z" fill="url(#paint0_linear_188_264)"/>
<path d="M20.7964 8.67471C18.9482 8.43468 17.0879 8.19464 15.2396 7.95461C13.3674 7.71458 11.4951 7.46254 9.61083 7.82259C8.54268 8.02662 7.58254 8.44668 6.83844 9.2748C6.46639 9.69486 6.5624 9.92289 7.07847 10.1029C7.61855 10.2949 8.0266 10.2349 8.50667 9.87488C9.31079 9.2748 10.3189 9.15478 11.2911 9.19078C12.7553 9.25079 14.2075 9.41882 15.6717 9.56284C17.4239 9.74286 19.1762 9.97089 20.9404 10.1149C21.5765 10.1629 22.2246 10.0669 22.8607 9.94689C25.5491 9.40681 26.4372 7.35452 26.2692 5.17021C26.0892 2.9619 24.661 1.71372 22.7527 0.90961C21.0004 0.165504 19.1522 -0.0505262 17.2559 0.00948227C14.0395 0.117498 11.015 0.897607 8.27864 2.62585C5.91431 4.11406 4.19806 6.11835 3.53797 8.90274C3.45396 9.23879 3.40595 9.57484 3.36995 9.92289C3.33394 10.2949 3.53797 10.439 3.89802 10.3549C4.12605 10.2949 4.36609 10.2469 4.58212 10.1389C4.72614 10.0669 4.88216 9.91088 4.90616 9.76686C5.43424 6.82645 7.2585 4.87017 9.79086 3.53798C13.2833 1.70172 16.9799 1.08963 20.8804 1.91775C21.8046 2.10978 22.6807 2.48183 23.4368 3.06992C24.661 4.01805 25.069 5.47026 24.5289 6.92246C24.1209 8.03862 23.1848 8.38667 22.1406 8.53069C21.6965 8.5907 21.2405 8.5907 20.7964 8.6267C20.8084 8.6387 20.8084 8.65071 20.7964 8.67471Z" fill="url(#paint1_linear_188_264)"/>
<path d="M6.17834 11.5071C3.28593 11.4951 1.34166 14.0635 2.06176 16.6198C2.30179 17.472 2.93788 17.64 3.56197 17.0159C4.89416 15.6597 6.38237 14.5316 8.06261 13.6314C8.78271 13.2354 8.80671 12.5873 8.12262 12.1312C7.45052 11.7232 6.73042 11.5191 6.17834 11.5071Z" fill="url(#paint2_linear_188_264)"/>
<path d="M7.84658 29.5095C7.83458 34.2622 11.7231 38.1508 16.4758 38.1388C21.2165 38.1268 25.069 34.2982 25.093 29.5455C25.117 24.7929 21.2645 20.9163 16.4878 20.9043C11.7231 20.8923 7.85858 24.7449 7.84658 29.5095ZM21.4565 29.2935C21.4805 29.8936 21.2045 30.2537 20.7244 30.2777C20.2563 30.2897 19.9683 29.9776 19.9323 29.4015C19.8123 27.5413 18.4681 26.1971 16.6198 26.0771C16.0197 26.0411 15.6837 25.729 15.7197 25.2609C15.7557 24.7929 16.1278 24.5288 16.7278 24.5528C19.2602 24.6489 21.3605 26.7732 21.4565 29.2935ZM16.3198 34.4902C13.7514 34.4542 11.5191 32.2099 11.4951 29.6416C11.4951 29.1135 11.7831 28.7654 12.2272 28.7414C12.6713 28.7294 12.9833 29.0535 13.0193 29.5816C13.1513 31.5018 14.4715 32.834 16.3798 32.954C16.9079 32.99 17.2439 33.2901 17.2319 33.7341C17.2319 34.2142 16.8719 34.5022 16.3198 34.4902Z" fill="url(#paint3_linear_188_264)"/>
<defs>
<linearGradient id="paint0_linear_188_264" x1="46" y1="11.2114" x2="31.6521" y2="56.1135" gradientUnits="userSpaceOnUse">
<stop stop-color="#FFBF77"/>
<stop offset="1" stop-color="#FF733C"/>
</linearGradient>
<linearGradient id="paint1_linear_188_264" x1="26.2889" y1="0" x2="23.5647" y2="14.2418" gradientUnits="userSpaceOnUse">
<stop stop-color="#FFBF77"/>
<stop offset="1" stop-color="#FF733C"/>
</linearGradient>
<linearGradient id="paint2_linear_188_264" x1="8.61966" y1="11.5071" x2="5.89205" y2="18.8669" gradientUnits="userSpaceOnUse">
<stop stop-color="#FFBF77"/>
<stop offset="1" stop-color="#FF733C"/>
</linearGradient>
<linearGradient id="paint3_linear_188_264" x1="25.0931" y1="20.9043" x2="16.3083" y2="41.7114" gradientUnits="userSpaceOnUse">
<stop stop-color="#FFBF77"/>
<stop offset="1" stop-color="#FF733C"/>
</linearGradient>
</defs>
</svg>
