<svg width="46" height="46" viewBox="0 0 46 46" fill="none" xmlns="http://www.w3.org/2000/svg">
<path d="M46 45.9853C45.82 45.9853 45.64 45.9992 45.4601 45.9992C31.0143 45.9992 16.5686 45.9992 2.13487 45.9992C1.84692 45.9992 1.55896 46.013 1.283 45.93C0.455134 45.6812 -0.0847812 44.741 0.0112037 43.7732C0.119187 42.8192 0.80308 42.0864 1.65495 42.0311C1.84692 42.0173 2.03889 42.0311 2.24285 42.0311C15.4888 42.0311 28.7347 42.0311 41.9806 42.0311C42.1726 42.0311 42.3646 42.0311 42.6045 42.0311C42.6165 41.8099 42.6285 41.6302 42.6285 41.4504C42.5205 36.8602 42.4965 32.27 42.2686 27.6936C42.0886 24.0436 41.6567 20.4212 41.3807 16.7849C41.1407 13.6464 40.9728 10.4941 40.7688 7.34181C40.7568 7.24502 40.7808 7.13442 40.7928 6.96851C42.5325 6.96851 44.2723 6.96851 46 6.96851C46 19.9649 46 32.9751 46 45.9853Z" fill="url(#paint0_linear_195_312)"/>
<path d="M25.8671 0C25.8671 1.3826 25.8551 2.69606 25.8671 3.9957C25.9271 9.31869 26.3111 14.6002 26.851 19.8817C27.4749 26.0481 27.7988 32.2559 27.8108 38.4638C27.8108 38.6021 27.7988 38.7265 27.7868 38.9201C27.5829 38.9201 27.4149 38.9201 27.2349 38.9201C19.4481 38.9201 11.6734 38.9062 3.88659 38.9339C2.61479 38.9339 1.30699 38.7265 0.0231934 39.3072C0.0231934 39.0583 0.0231934 38.8786 0.0231934 38.685C0.0231934 26.5597 0.0231934 14.4343 0.0231934 2.29511C0.0231934 0.760426 0.68309 0 2.00288 0C9.76566 0 17.5404 0 25.3032 0C25.4472 0 25.5912 0 25.8671 0Z" fill="url(#paint1_linear_195_312)"/>
<path d="M28.4948 0.0275879C29.6466 0.0275879 30.7264 0.0275879 31.8783 0.0275879C31.8783 0.262629 31.8663 0.456193 31.8783 0.663582C32.0342 5.03258 32.1302 9.41541 32.3822 13.7844C32.5501 16.8676 32.9581 19.9231 33.1741 22.9925C33.414 26.3384 33.618 29.6981 33.762 33.0578C33.8459 34.9796 33.774 36.9152 33.774 38.8923C32.7541 38.8923 31.6503 38.8923 30.4865 38.8923C30.4865 38.6573 30.4865 38.4361 30.4865 38.2149C30.3785 34.7031 30.3425 31.1775 30.1505 27.6657C29.9945 24.624 29.6466 21.5961 29.4186 18.5544C29.1427 14.9458 28.8667 11.3372 28.6628 7.72864C28.5308 5.37823 28.5428 3.00017 28.4828 0.649756C28.4948 0.456192 28.4948 0.276455 28.4948 0.0275879Z" fill="url(#paint2_linear_195_312)"/>
<path d="M34.6018 0.0275879C35.7057 0.0275879 36.7735 0.0275879 37.8893 0.0275879C37.9013 0.152021 37.9253 0.290281 37.9253 0.414715C38.0453 4.1892 38.1053 7.96369 38.2973 11.7382C38.4532 14.6831 38.7292 17.6142 39.0172 20.5453C39.5571 26.0757 39.869 31.6061 39.905 37.1641C39.905 37.731 39.905 38.2978 39.905 38.8923C38.7892 38.8923 37.7094 38.8923 36.5575 38.8923C36.5575 38.6711 36.5575 38.4776 36.5575 38.2702C36.5216 33.2513 36.3416 28.2325 35.9096 23.2414C35.6097 19.7572 35.2018 16.2869 35.0098 12.7889C34.7698 8.6135 34.6978 4.41041 34.5659 0.234977C34.5779 0.179673 34.5899 0.138195 34.6018 0.0275879Z" fill="url(#paint3_linear_195_312)"/>
<defs>
<linearGradient id="paint0_linear_195_312" x1="0.000183105" y1="6.96851" x2="17.638" y2="56.1677" gradientUnits="userSpaceOnUse">
<stop stop-color="#FFBF77"/>
<stop offset="1" stop-color="#FF733C"/>
</linearGradient>
<linearGradient id="paint1_linear_195_312" x1="0.0231934" y1="0" x2="24.6457" y2="41.1988" gradientUnits="userSpaceOnUse">
<stop stop-color="#FFBF77"/>
<stop offset="1" stop-color="#FF733C"/>
</linearGradient>
<linearGradient id="paint2_linear_195_312" x1="28.4828" y1="0.0275879" x2="44.6927" y2="5.27928" gradientUnits="userSpaceOnUse">
<stop stop-color="#FFBF77"/>
<stop offset="1" stop-color="#FF733C"/>
</linearGradient>
<linearGradient id="paint3_linear_195_312" x1="34.5659" y1="0.0275879" x2="50.8233" y2="5.31377" gradientUnits="userSpaceOnUse">
<stop stop-color="#FFBF77"/>
<stop offset="1" stop-color="#FF733C"/>
</linearGradient>
</defs>
</svg>
