<svg width="46" height="46" viewBox="0 0 46 46" fill="none" xmlns="http://www.w3.org/2000/svg">
<path d="M36.8588 18.1812C35.505 17.9386 34.4219 17.3213 33.384 16.5276C33.1809 16.3733 32.865 16.3292 32.5943 16.241C32.6845 16.4835 32.7071 16.8142 32.865 16.9906C34.0835 18.3134 35.5501 19.2394 37.3552 19.5701C38.4157 19.7685 39.4762 20.0772 39.6792 21.2898C39.8823 22.5024 38.9798 23.2079 38.0321 23.737C35.8209 24.9717 33.3389 25.4126 30.8569 25.7433C24.7647 26.537 18.6725 26.515 12.648 25.3024C11.4521 25.0598 10.2562 24.6851 9.1055 24.2882C8.49628 24.0898 7.93219 23.737 7.41323 23.3843C6.66863 22.8772 6.10453 22.2158 6.28504 21.2457C6.46555 20.2756 7.25528 19.967 8.09014 19.7245C9.30857 19.3497 9.33114 19.3717 9.03781 18.115C8.18039 14.4552 7.30041 10.7954 6.39786 7.13556C6.28504 6.69462 5.99171 6.23163 5.65326 5.90092C4.50251 4.77652 4.25431 3.10094 5.11173 1.73402C5.96915 0.3671 7.68399 -0.22817 9.21832 0.323007C10.7752 0.874185 11.8131 2.41748 11.407 3.98283C11.0008 5.52612 11.5649 6.84895 11.9936 8.23791C12.2418 9.05366 12.9639 9.4505 13.8213 9.4505C15.3782 9.47255 16.9125 9.47255 18.4694 9.4505C19.6878 9.42846 20.455 8.63476 20.5227 7.46626C20.5678 6.54029 20.5453 5.6584 19.9586 4.79856C19.1238 3.54188 19.575 1.75607 20.7935 0.785998C22.0345 -0.228169 23.8847 -0.272267 25.1483 0.719852C26.4344 1.71197 26.8857 3.49779 26.0508 4.86471C25.5093 5.76864 25.4641 6.67257 25.5318 7.64265C25.5995 8.70091 26.3667 9.42846 27.4498 9.4505C29.0292 9.4946 30.6087 9.4946 32.1881 9.4505C33.1584 9.42846 33.8353 8.92137 34.106 7.99539C34.3768 7.1576 34.625 6.29777 34.8055 5.45998C34.8732 5.17337 34.7829 4.82061 34.6701 4.51196C34.1737 2.92456 34.8506 1.27103 36.3624 0.52143C37.8065 -0.206124 39.6116 0.146629 40.6269 1.40331C41.6649 2.68205 41.6874 4.55605 40.5141 5.7025C39.9275 6.29777 39.6567 6.95918 39.4762 7.70878C38.6865 11.0158 37.8742 14.345 37.0619 17.652C36.9942 17.7843 36.9265 17.9607 36.8588 18.1812ZM22.9821 22.3481C23.7944 22.3481 24.3811 21.9733 24.697 21.3118C25.1934 20.2977 25.938 19.6142 26.9533 19.0851C28.4651 18.2693 28.4651 16.5717 26.9759 15.7339C25.9831 15.1827 25.2611 14.4993 24.697 13.5072C23.8621 12.03 22.1022 12.0521 21.2673 13.5292C20.7258 14.4993 20.0037 15.2048 18.9884 15.7339C17.5217 16.5276 17.4992 18.2252 18.9658 19.041C19.9812 19.5922 20.7935 20.2756 21.2899 21.3118C21.6058 21.9953 22.215 22.326 22.9821 22.3481Z" fill="url(#paint0_linear_188_225)"/>
<path d="M39.5014 30.282C39.8249 30.282 40.1215 30.282 40.418 30.282C41.3616 30.2949 42.076 30.9129 42.0895 31.8014C42.103 35.3036 42.103 38.8058 42.0895 42.3081C42.0895 43.1707 41.4155 43.763 40.5124 43.8145C40.1754 43.8274 39.8519 43.8145 39.5149 43.8145C39.461 44.1236 39.434 44.3811 39.3666 44.6257C39.1374 45.4111 38.3691 45.9777 37.4929 45.9906C36.4145 46.0034 35.3362 46.0034 34.2713 45.9906C33.0042 45.9777 32.155 45.1794 32.1415 43.9562C32.128 42.5398 32.1415 41.1235 32.1415 39.72C32.1415 36.5912 32.1415 33.4624 32.1415 30.3207C32.1415 28.8271 32.9368 28.0674 34.5004 28.0674C35.3227 28.0674 36.145 28.0674 36.9672 28.0674C38.6117 28.0803 39.2992 28.6597 39.5014 30.282Z" fill="url(#paint1_linear_188_225)"/>
<path d="M6.4893 43.8133C6.16579 43.8133 5.85576 43.8261 5.54572 43.8133C4.57519 43.7746 3.92816 43.1823 3.91468 42.2553C3.9012 38.7917 3.9012 35.3152 3.91468 31.8516C3.91468 30.8859 4.60214 30.2936 5.6266 30.2807C5.90967 30.2807 6.19275 30.2807 6.44886 30.2807C6.4893 30.2164 6.51626 30.1906 6.52974 30.1649C6.73194 28.6326 7.39244 28.079 9.02348 28.079C9.91314 28.079 10.8028 28.0661 11.6925 28.079C13 28.0918 13.8357 28.903 13.8492 30.1391C13.8492 34.7358 13.8492 39.3325 13.8492 43.9163C13.8492 45.191 13.0135 45.9893 11.679 45.9893C10.7219 46.0022 9.76486 45.9893 8.80781 45.9893C7.43288 45.9893 6.70498 45.3584 6.5567 44.045C6.54322 43.9935 6.51626 43.9291 6.4893 43.8133Z" fill="url(#paint2_linear_188_225)"/>
<path d="M31.3056 33.7837C31.3056 36.1013 31.3056 38.3675 31.3056 40.698C25.7655 40.698 20.2523 40.698 14.6852 40.698C14.6852 38.3932 14.6852 36.1271 14.6852 33.7837C20.2119 33.7837 25.7251 33.7837 31.3056 33.7837Z" fill="url(#paint3_linear_188_225)"/>
<path d="M3.07911 34.2217C3.07911 36.2432 3.07911 38.2261 3.07911 40.2605C2.51296 40.1961 1.94682 40.2347 1.47503 40.0544C1.08412 39.8999 0.666244 39.5523 0.477528 39.1789C-0.169497 37.9042 -0.142536 36.578 0.46405 35.2775C0.747123 34.6595 1.27283 34.3247 2.01421 34.3118C2.35121 34.3118 2.70168 34.2603 3.07911 34.2217Z" fill="url(#paint4_linear_188_225)"/>
<path d="M42.9384 40.2597C42.9384 38.2253 42.9384 36.2424 42.9384 34.208C43.4911 34.2724 44.0033 34.2981 44.502 34.4011C45.0143 34.5042 45.3513 34.8518 45.5535 35.3025C46.1466 36.59 46.1466 37.8905 45.5669 39.1781C45.2973 39.7575 44.839 40.1309 44.1381 40.1695C43.7607 40.1695 43.3698 40.221 42.9384 40.2597Z" fill="url(#paint5_linear_188_225)"/>
<defs>
<linearGradient id="paint0_linear_188_225" x1="4.60051" y1="0" x2="14.9426" y2="34.2697" gradientUnits="userSpaceOnUse">
<stop stop-color="#FFBF77"/>
<stop offset="1" stop-color="#FF733C"/>
</linearGradient>
<linearGradient id="paint1_linear_188_225" x1="32.1355" y1="28.0674" x2="44.4262" y2="44.2311" gradientUnits="userSpaceOnUse">
<stop stop-color="#FFBF77"/>
<stop offset="1" stop-color="#FF733C"/>
</linearGradient>
<linearGradient id="paint2_linear_188_225" x1="3.90457" y1="28.0732" x2="16.1921" y2="44.2111" gradientUnits="userSpaceOnUse">
<stop stop-color="#FFBF77"/>
<stop offset="1" stop-color="#FF733C"/>
</linearGradient>
<linearGradient id="paint3_linear_188_225" x1="14.6852" y1="33.7837" x2="16.3622" y2="43.3246" gradientUnits="userSpaceOnUse">
<stop stop-color="#FFBF77"/>
<stop offset="1" stop-color="#FF733C"/>
</linearGradient>
<linearGradient id="paint4_linear_188_225" x1="0.000671387" y1="34.2217" x2="4.22112" y2="39.314" gradientUnits="userSpaceOnUse">
<stop stop-color="#FFBF77"/>
<stop offset="1" stop-color="#FF733C"/>
</linearGradient>
<linearGradient id="paint5_linear_188_225" x1="42.9384" y1="34.208" x2="47.1737" y2="39.2794" gradientUnits="userSpaceOnUse">
<stop stop-color="#FFBF77"/>
<stop offset="1" stop-color="#FF733C"/>
</linearGradient>
</defs>
</svg>
