<svg width="46" height="46" viewBox="0 0 46 46" fill="none" xmlns="http://www.w3.org/2000/svg">
<path d="M18.9736 46C18.0736 46 17.1735 46 16.2734 46C16.2734 44.6583 16.2734 43.3167 16.2734 41.987C12.6131 41.987 9.03679 41.987 5.40047 41.987C5.40047 43.3526 5.40047 44.6823 5.40047 46C4.50039 46 3.60031 46 2.70023 46C2.70023 44.6583 2.70023 43.3167 2.70023 41.9271C1.77615 41.9271 0.900078 41.9271 0 41.9271C0 27.9115 0 13.9557 0 0C7.21263 0 14.4373 0 21.6499 0C21.6499 13.9677 21.6499 27.9354 21.6499 41.963C20.7138 41.963 19.8497 41.963 18.9496 41.963C18.9736 43.3406 18.9736 44.6703 18.9736 46ZM16.2374 17.6214C12.6131 17.6214 9.04879 17.6214 5.44847 17.6214C5.44847 18.5198 5.44847 19.3943 5.44847 20.2688C9.06079 20.2688 12.6371 20.2688 16.2374 20.2688C16.2374 19.3703 16.2374 18.5078 16.2374 17.6214ZM16.2374 6.79219C12.6011 6.79219 9.02478 6.79219 5.44847 6.79219C5.44847 7.69062 5.44847 8.55313 5.44847 9.42761C9.06079 9.42761 12.6371 9.42761 16.2374 9.42761C16.2374 8.54115 16.2374 7.67865 16.2374 6.79219ZM16.2614 14.8661C16.2614 14.1234 16.2374 13.4047 16.2734 12.6979C16.2974 12.2786 16.1534 12.1708 15.7454 12.1828C12.4811 12.1948 9.2168 12.1948 5.95252 12.1948C5.7965 12.1948 5.62849 12.1948 5.46047 12.1948C5.46047 13.1292 5.46047 13.9917 5.46047 14.8781C9.06079 14.8661 12.6371 14.8661 16.2614 14.8661ZM16.2254 28.3786C16.2254 27.4562 16.2254 26.5818 16.2254 25.7193C15.3253 25.7193 14.4613 25.7193 13.5852 25.7193C13.5852 26.6177 13.5852 27.4922 13.5852 28.3786C14.4733 28.3786 15.3373 28.3786 16.2254 28.3786Z" fill="url(#paint0_linear_195_320)"/>
<path d="M29.7506 46C28.8505 46 27.9504 46 27.0503 46C27.0503 44.6583 27.0503 43.3167 27.0503 41.9271C26.1263 41.9271 25.2502 41.9271 24.3501 41.9271C24.3501 27.9115 24.3501 13.9557 24.3501 0C31.5627 0 38.7754 0 46 0C46 13.9797 46 27.9714 46 41.951C45.1119 41.951 44.2238 41.951 43.2997 41.951C43.2997 43.3406 43.2997 44.6703 43.2997 46C42.3997 46 41.4996 46 40.5995 46C40.5995 44.6583 40.5995 43.3167 40.5995 41.987C36.9392 41.987 33.3629 41.987 29.7266 41.987C29.7506 43.3406 29.7506 44.6703 29.7506 46ZM40.5755 20.2688C40.5755 19.3703 40.5755 18.4958 40.5755 17.6214C36.9632 17.6214 33.3869 17.6214 29.7986 17.6214C29.7986 18.5198 29.7986 19.3823 29.7986 20.2688C33.3989 20.2688 36.9752 20.2688 40.5755 20.2688ZM40.5755 9.43958C40.5755 8.54114 40.5755 7.66667 40.5755 6.79219C36.9632 6.79219 33.3869 6.79219 29.7986 6.79219C29.7986 7.69062 29.7986 8.55312 29.7986 9.43958C33.3989 9.43958 36.9752 9.43958 40.5755 9.43958ZM40.5875 12.2188C36.9872 12.2188 33.3989 12.2188 29.7986 12.2188C29.7986 13.1172 29.7986 13.9797 29.7986 14.8661C33.4109 14.8661 36.9872 14.8661 40.5875 14.8661C40.5875 13.9677 40.5875 13.1052 40.5875 12.2188ZM40.5875 25.7312C39.6874 25.7312 38.8234 25.7312 37.9353 25.7312C37.9353 26.6297 37.9353 27.5042 37.9353 28.3667C38.8354 28.3667 39.7114 28.3667 40.5875 28.3667C40.5875 27.4682 40.5875 26.6057 40.5875 25.7312Z" fill="url(#paint1_linear_195_320)"/>
<defs>
<linearGradient id="paint0_linear_195_320" x1="0" y1="0" x2="32.5279" y2="36.2349" gradientUnits="userSpaceOnUse">
<stop stop-color="#FFBF77"/>
<stop offset="1" stop-color="#FF733C"/>
</linearGradient>
<linearGradient id="paint1_linear_195_320" x1="24.3501" y1="0" x2="56.878" y2="36.2349" gradientUnits="userSpaceOnUse">
<stop stop-color="#FFBF77"/>
<stop offset="1" stop-color="#FF733C"/>
</linearGradient>
</defs>
</svg>
