<svg width="26" height="25" viewBox="0 0 26 25" fill="none" xmlns="http://www.w3.org/2000/svg">
<path d="M0 20.3588C0 20.6266 0 20.8882 0 21.1559C0.0190792 21.212 0.0381546 21.2618 0.0445137 21.3178C0.184425 22.1648 0.566004 22.8871 1.20197 23.4787C1.9842 24.2073 2.93178 24.5 4.0002 24.5C9.99732 24.4938 16.0008 24.4938 21.9979 24.4938C22.1442 24.4938 22.2841 24.4938 22.4304 24.4813C23.8295 24.3755 24.8852 23.7154 25.5402 22.5073C26.2143 21.268 26.1189 20.035 25.4385 18.8082C22.3986 13.3531 19.3714 7.89172 16.3379 2.43036C16.0517 1.91349 15.6637 1.47758 15.155 1.15376C13.1898 -0.104161 10.735 0.506117 9.61574 2.53C6.81751 7.56168 4.02564 12.5934 1.23376 17.625C0.744074 18.5031 0.16535 19.3438 0 20.3588ZM14.5254 11.8087C14.5254 12.1637 14.5254 12.5186 14.5254 12.8798C14.5254 13.7579 14.5317 14.6359 14.5254 15.514C14.5126 16.5913 13.5142 17.295 12.503 16.9525C11.8734 16.7408 11.4855 16.1865 11.4855 15.4704C11.4855 13.0355 11.4855 10.6006 11.4855 8.16573C11.4855 8.05986 11.4918 7.94777 11.5109 7.84191C11.6572 7.03235 12.3949 6.50926 13.228 6.62135C13.9912 6.72722 14.5254 7.34372 14.5254 8.15327C14.5317 9.37383 14.5254 10.5882 14.5254 11.8087ZM13.0054 21.5109C12.1723 21.5171 11.4855 20.857 11.4791 20.0412C11.4727 19.2255 12.1723 18.528 13.0054 18.5342C13.8322 18.5405 14.519 19.213 14.519 20.0226C14.5254 20.8383 13.8385 21.5047 13.0054 21.5109Z" fill="#E13E3D"/>
</svg>
