<svg width="20" height="20" viewBox="0 0 20 20" fill="none" xmlns="http://www.w3.org/2000/svg">
<path d="M4.87497e-05 9.98571C0.0171135 4.47224 4.49376 -0.00568444 9.9886 5.41636e-06C15.529 0.00569528 20.0227 4.51207 19.9999 10.0312C19.9715 15.5902 15.4664 20.0283 9.88622 19.9999C4.44826 19.9657 -0.017016 15.4423 4.87497e-05 9.98571ZM16.3879 9.99709C16.331 9.55328 16.2969 9.10947 16.2115 8.67135C15.9613 7.45941 15.3867 6.41248 14.5221 5.53055C14.2605 5.26313 13.9476 5.1664 13.5893 5.2802C13.2423 5.3883 13.0261 5.63297 12.9579 5.99143C12.8953 6.32713 13.0318 6.59455 13.2593 6.83353C14.0728 7.68701 14.4994 8.70549 14.5392 9.8776C14.6245 12.7168 12.0648 14.9416 9.25482 14.4693C6.68942 14.0426 5.00001 11.539 5.56884 9.00137C5.75655 8.15927 6.16042 7.42527 6.75768 6.80508C6.97952 6.57748 7.09898 6.31575 7.04209 5.99712C6.97952 5.63866 6.76337 5.39399 6.41639 5.2802C6.04096 5.16071 5.71673 5.26882 5.44939 5.55331C3.98182 7.11233 3.39593 8.95585 3.73154 11.0668C4.27192 14.4523 7.53128 16.8135 10.9215 16.2958C14.0614 15.8121 16.3537 13.155 16.3879 9.99709ZM10.8987 6.37834C10.8987 5.79797 10.9044 5.21761 10.8987 4.63155C10.8987 4.51776 10.893 4.40396 10.8646 4.29585C10.7451 3.85773 10.3356 3.596 9.86915 3.64721C9.43684 3.69272 9.09555 4.06257 9.08986 4.51776C9.08417 5.74677 9.08417 6.97008 9.08986 8.19909C9.08986 8.27875 9.10124 8.35272 9.12399 8.42669C9.24344 8.84774 9.65869 9.13223 10.0739 9.08102C10.5404 9.02412 10.8817 8.68273 10.893 8.22185C10.9101 7.61304 10.8987 6.99284 10.8987 6.37834Z" fill="#F7F7F7"/>
</svg>
