<svg width="152" height="48" viewBox="0 0 152 48" fill="none" xmlns="http://www.w3.org/2000/svg">
<mask id="mask0_157_446" style="mask-type:luminance" maskUnits="userSpaceOnUse" x="36" y="0" width="35" height="48">
<path d="M36.9101 0H70.0533V48H36.9101V0Z" fill="white"/>
</mask>
<g mask="url(#mask0_157_446)">
<path d="M36.934 48V17.5529C36.934 14.3887 39.4892 11.8248 42.6413 11.8248H63.3715L70.0534 0L67.9928 13.9361C67.5767 16.7445 65.1748 18.8248 62.3458 18.8248H46.2533V39.7062L36.934 48Z" fill="url(#paint0_linear_157_446)"/>
</g>
<mask id="mask1_157_446" style="mask-type:luminance" maskUnits="userSpaceOnUse" x="0" y="0" width="34" height="48">
<path d="M0 0H33.1578V48H0V0Z" fill="white"/>
</mask>
<g mask="url(#mask1_157_446)">
<path d="M33.1194 48V17.5529C33.1194 14.3887 30.5642 11.8248 27.4103 11.8248H6.68193L0 0L2.06061 13.9361C2.47492 16.7445 4.87866 18.8248 7.70767 18.8248H23.7983V39.7062L33.1194 48Z" fill="url(#paint1_linear_157_446)"/>
</g>
<path d="M78.6257 17.0059H76.9312V17.9812H78.4648V18.4839H76.9312V19.8714H76.358V16.4932H78.6307L78.6257 17.0059Z" fill="white"/>
<path d="M80.1899 19.8714H79.6162V16.4932H80.1899V19.8714Z" fill="white"/>
<path d="M83.8644 17.0059H82.7935V19.8714H82.2253V17.0059H81.1593V16.4932H83.8644V17.0059Z" fill="white"/>
<path d="M87.7657 19.8714H87.2075L85.4075 17.4483V19.8714H84.8343V16.4932H85.3974L87.2075 18.9213V16.4932H87.7657V19.8714Z" fill="white"/>
<path d="M91.5535 17.0059H89.7132V17.9159H91.3624V18.4286H89.7132V19.3587H91.6138V19.8714H89.14V16.4932H91.5535V17.0059Z" fill="white"/>
<path d="M93.9004 16.4675C94.3391 16.4675 94.7325 16.5832 95.082 16.8144L94.8457 17.3171C94.5038 17.1098 94.1732 17.0054 93.8551 17.0054C93.6867 17.0054 93.5534 17.0356 93.4529 17.0959C93.3548 17.1563 93.3071 17.2442 93.3071 17.3573C93.3071 17.4679 93.3523 17.5635 93.4428 17.6439C93.5333 17.7218 93.6452 17.7796 93.7797 17.8198C93.9129 17.8576 94.0588 17.9041 94.2172 17.9606C94.3781 18.0147 94.5251 18.0737 94.6596 18.1366C94.7929 18.2007 94.9035 18.2999 94.9915 18.4332C95.082 18.5639 95.1272 18.7247 95.1272 18.9158C95.1272 19.2111 95.0078 19.4474 94.7702 19.6246C94.5352 19.8031 94.2297 19.8911 93.8551 19.8911C93.5962 19.8911 93.3473 19.8433 93.1059 19.7453C92.8646 19.6485 92.6534 19.5178 92.4724 19.3531L92.7188 18.8605C92.8897 19.0188 93.077 19.1407 93.2819 19.2275C93.4856 19.3117 93.6791 19.3531 93.8602 19.3531C94.0613 19.3531 94.2172 19.318 94.3278 19.2476C94.4384 19.1747 94.4937 19.0741 94.4937 18.9459C94.4937 18.8291 94.4484 18.7323 94.3579 18.6544C94.2674 18.5739 94.1543 18.5161 94.0211 18.4784C93.8866 18.442 93.7407 18.3967 93.5836 18.3427C93.4252 18.2899 93.2781 18.2346 93.1411 18.1768C93.0066 18.1165 92.8947 18.0209 92.8042 17.8902C92.7137 17.757 92.6685 17.5961 92.6685 17.4076C92.6685 17.1236 92.7804 16.8948 93.0054 16.7239C93.2329 16.553 93.5308 16.4675 93.9004 16.4675Z" fill="white"/>
<path d="M97.3855 16.4675C97.8242 16.4675 98.2176 16.5832 98.5671 16.8144L98.3307 17.3171C97.9888 17.1098 97.6582 17.0054 97.3402 17.0054C97.1718 17.0054 97.0385 17.0356 96.9379 17.0959C96.8399 17.1563 96.7921 17.2442 96.7921 17.3573C96.7921 17.4679 96.8374 17.5635 96.9279 17.6439C97.0184 17.7218 97.1303 17.7796 97.2648 17.8198C97.398 17.8576 97.5438 17.9041 97.7022 17.9606C97.8631 18.0147 98.0102 18.0737 98.1447 18.1366C98.278 18.2007 98.3886 18.2999 98.4766 18.4332C98.5671 18.5639 98.6123 18.7247 98.6123 18.9158C98.6123 19.2111 98.4929 19.4474 98.2553 19.6246C98.0203 19.8031 97.7148 19.8911 97.3402 19.8911C97.0813 19.8911 96.8324 19.8433 96.591 19.7453C96.3497 19.6485 96.1385 19.5178 95.9575 19.3531L96.2038 18.8605C96.3748 19.0188 96.5621 19.1407 96.767 19.2275C96.9706 19.3117 97.1642 19.3531 97.3452 19.3531C97.5464 19.3531 97.7022 19.318 97.8128 19.2476C97.9235 19.1747 97.9788 19.0741 97.9788 18.9459C97.9788 18.8291 97.9335 18.7323 97.843 18.6544C97.7525 18.5739 97.6394 18.5161 97.5061 18.4784C97.3716 18.442 97.2258 18.3967 97.0687 18.3427C96.9103 18.2899 96.7632 18.2346 96.6262 18.1768C96.4917 18.1165 96.3798 18.0209 96.2893 17.8902C96.1988 17.757 96.1536 17.5961 96.1536 17.4076C96.1536 17.1236 96.2654 16.8948 96.4904 16.7239C96.718 16.553 97.0159 16.4675 97.3855 16.4675Z" fill="white"/>
<path d="M102.986 16.4775C103.223 16.4775 103.455 16.5253 103.68 16.6183C103.907 16.7088 104.103 16.837 104.268 17.0004L103.936 17.4126C103.815 17.2819 103.671 17.1788 103.504 17.1009C103.335 17.0242 103.167 16.9853 102.996 16.9853C102.657 16.9853 102.37 17.1009 102.136 17.3322C101.905 17.5609 101.789 17.8399 101.789 18.1717C101.789 18.5073 101.905 18.7901 102.136 19.0213C102.37 19.25 102.657 19.3632 102.996 19.3632C103.344 19.3632 103.657 19.2312 103.936 18.966L104.273 19.338C104.098 19.5089 103.896 19.6447 103.665 19.7452C103.433 19.8458 103.2 19.896 102.966 19.896C102.469 19.896 102.052 19.7327 101.714 19.4034C101.378 19.0716 101.211 18.6631 101.211 18.1767C101.211 17.6979 101.382 17.2957 101.724 16.9702C102.066 16.6422 102.486 16.4775 102.986 16.4775Z" fill="white"/>
<path d="M107.748 17.0059H105.908V17.9159H107.557V18.4286H105.908V19.3587H107.808V19.8714H105.335V16.4932H107.748V17.0059Z" fill="white"/>
<path d="M111.915 19.8714H111.357L109.557 17.4483V19.8714H108.984V16.4932H109.547L111.357 18.9213V16.4932H111.915V19.8714Z" fill="white"/>
<path d="M115.598 17.0059H114.527V19.8714H113.958V17.0059H112.892V16.4932H115.598V17.0059Z" fill="white"/>
<path d="M118.981 17.0059H117.14V17.9159H118.79V18.4286H117.14V19.3587H119.041V19.8714H116.567V16.4932H118.981V17.0059Z" fill="white"/>
<path d="M122.363 19.8714L121.745 18.8459C121.711 18.8497 121.659 18.8509 121.589 18.8509H120.789V19.8714H120.216V16.4932H121.589C122.021 16.4932 122.356 16.5937 122.595 16.7948C122.832 16.9959 122.952 17.2799 122.952 17.6444C122.952 17.9159 122.891 18.1459 122.771 18.3331C122.65 18.5179 122.475 18.6536 122.248 18.7403L123.007 19.8714H122.363ZM120.789 18.3432H121.589C122.134 18.3432 122.409 18.1157 122.409 17.6595C122.409 17.2246 122.134 17.0059 121.589 17.0059H120.789V18.3432Z" fill="white"/>
<path d="M59.194 28.1768C60.5666 28.1768 61.7712 28.518 62.8079 29.1987L61.9318 31.0162C61.4499 30.7388 60.9334 30.5107 60.3841 30.33C59.8383 30.1512 59.3784 30.06 59.0042 30.06C58.3326 30.06 57.9967 30.2844 57.9967 30.7315C57.9967 31.0198 58.161 31.2498 58.4932 31.4249C58.8235 31.6001 59.2251 31.7516 59.6978 31.8775C60.1742 31.9998 60.6487 32.1512 61.1214 32.33C61.5978 32.5107 62.0011 32.8027 62.3333 33.206C62.6692 33.6056 62.8371 34.1092 62.8371 34.7169C62.8371 35.5983 62.4903 36.2863 61.8004 36.7826C61.1141 37.2753 60.238 37.5198 59.1721 37.5198C58.4129 37.5198 57.6609 37.3884 56.9162 37.1257C56.1752 36.8629 55.5309 36.5052 54.9816 36.0527L55.8868 34.2644C56.3486 34.664 56.8943 34.9925 57.5222 35.2498C58.1501 35.5089 58.7067 35.6366 59.194 35.6366C59.5737 35.6366 59.8675 35.5691 60.0774 35.4322C60.2855 35.2972 60.3914 35.0965 60.3914 34.8337C60.3914 34.5819 60.2691 34.372 60.0263 34.206C59.7872 34.0362 59.4879 33.9103 59.1283 33.8264C58.7724 33.7388 58.3855 33.6275 57.9675 33.4906C57.5477 33.3501 57.159 33.1968 56.7994 33.0308C56.4435 32.8665 56.146 32.6038 55.9088 32.2425C55.6697 31.8775 55.551 31.4432 55.551 30.9359C55.551 30.1001 55.8832 29.4304 56.5512 28.9286C57.2174 28.4286 58.0989 28.1768 59.194 28.1768Z" fill="white"/>
<path d="M71.1009 30.1549H68.3412V37.4396H66.0123V30.1549H63.2819V28.2717H71.1009V30.1549Z" fill="white"/>
<path d="M77.6185 37.438L76.2533 34.8613H74.4209V37.438H72.0919V28.2847H76.1876C77.3995 28.2847 78.3358 28.562 78.9984 29.1168C79.6646 29.6679 79.9986 30.4526 79.9986 31.4744C79.9986 32.8869 79.4437 33.8668 78.334 34.4161L80.2614 37.438H77.6185ZM74.4209 33.0292H76.1876C76.6932 33.0292 77.0856 32.9033 77.363 32.6496C77.6441 32.3978 77.7865 32.0328 77.7865 31.5547C77.7865 31.0839 77.6441 30.7263 77.363 30.4817C77.0856 30.2336 76.6932 30.1095 76.1876 30.1095H74.4209V33.0292Z" fill="white"/>
<path d="M85.9064 28.2051C87.3264 28.2051 88.5091 28.6485 89.4545 29.5335C90.3982 30.4204 90.8709 31.5244 90.8709 32.8474C90.8709 34.1814 90.3963 35.2981 89.4472 36.1978C88.5018 37.0938 87.3228 37.5408 85.9064 37.5408C84.4938 37.5408 83.3165 37.0956 82.3729 36.2051C81.4329 35.3109 80.9639 34.1905 80.9639 32.8474C80.9639 31.5153 81.4329 30.4076 82.3729 29.5262C83.3165 28.6467 84.4938 28.2051 85.9064 28.2051ZM85.9356 30.154C85.2202 30.154 84.6087 30.4149 84.1032 30.935C83.5958 31.4514 83.3439 32.0938 83.3439 32.862C83.3439 33.6266 83.5994 34.2744 84.1105 34.8036C84.6215 35.3292 85.2293 35.5919 85.9356 35.5919C86.6401 35.5919 87.2388 35.3292 87.7316 34.8036C88.228 34.2744 88.4763 33.6266 88.4763 32.862C88.4763 32.0938 88.228 31.4514 87.7316 30.935C87.2388 30.4149 86.6401 30.154 85.9356 30.154Z" fill="white"/>
<path d="M100.547 37.438H98.4953L94.2828 31.8029V37.438H92.0926V28.2847H94.1514L98.3784 33.9343V28.2847H100.547V37.438Z" fill="white"/>
<path d="M108.463 32.7817H110.478V36.3511C109.982 36.7014 109.379 36.9897 108.675 37.2124C107.974 37.4314 107.304 37.5408 106.667 37.5408C105.269 37.5408 104.105 37.0956 103.17 36.2051C102.239 35.3109 101.776 34.196 101.776 32.862C101.776 31.5335 102.254 30.4277 103.214 29.5408C104.172 28.6503 105.377 28.2051 106.828 28.2051C107.503 28.2051 108.179 28.3273 108.85 28.57C109.522 28.8146 110.093 29.1449 110.566 29.5627L109.259 31.1467C108.927 30.8401 108.544 30.5992 108.106 30.4241C107.671 30.2452 107.24 30.154 106.813 30.154C106.063 30.154 105.433 30.4149 104.922 30.935C104.411 31.4514 104.156 32.0938 104.156 32.862C104.156 33.6357 104.413 34.2854 104.93 34.8109C105.444 35.3328 106.083 35.5919 106.842 35.5919C107.328 35.5919 107.868 35.4441 108.463 35.1467V32.7817Z" fill="white"/>
<path d="M120.548 37.438H118.219V33.8832H114.423V37.438H112.094V28.2847H114.423V32.0511H118.219V28.2847H120.548V37.438Z" fill="white"/>
<path d="M126.719 28.2051C128.139 28.2051 129.322 28.6485 130.267 29.5335C131.211 30.4204 131.684 31.5244 131.684 32.8474C131.684 34.1814 131.209 35.2981 130.26 36.1978C129.314 37.0938 128.135 37.5408 126.719 37.5408C125.306 37.5408 124.129 37.0956 123.186 36.2051C122.246 35.3109 121.777 34.1905 121.777 32.8474C121.777 31.5153 122.246 30.4076 123.186 29.5262C124.129 28.6467 125.306 28.2051 126.719 28.2051ZM126.748 30.154C126.033 30.154 125.421 30.4149 124.916 30.935C124.408 31.4514 124.157 32.0938 124.157 32.862C124.157 33.6266 124.412 34.2744 124.923 34.8036C125.434 35.3292 126.042 35.5919 126.748 35.5919C127.453 35.5919 128.051 35.3292 128.544 34.8036C129.041 34.2744 129.289 33.6266 129.289 32.862C129.289 32.0938 129.041 31.4514 128.544 30.935C128.051 30.4149 127.453 30.154 126.748 30.154Z" fill="white"/>
<path d="M138.432 37.438L137.067 34.8613H135.234V37.438H132.906V28.2847H137.001C138.213 28.2847 139.149 28.562 139.812 29.1168C140.478 29.6679 140.812 30.4526 140.812 31.4744C140.812 32.8869 140.257 33.8668 139.148 34.4161L141.075 37.438H138.432ZM135.234 33.0292H137.001C137.507 33.0292 137.899 32.9033 138.177 32.6496C138.458 32.3978 138.6 32.0328 138.6 31.5547C138.6 31.0839 138.458 30.7263 138.177 30.4817C137.899 30.2336 137.507 30.1095 137.001 30.1095H135.234V33.0292Z" fill="white"/>
<path d="M150.83 37.438H148.779L144.566 31.8029V37.438H142.376V28.2847H144.435L148.662 33.9343V28.2847H150.83V37.438Z" fill="white"/>
<path d="M126.977 18L151 18" stroke="url(#paint2_linear_157_446)" stroke-linecap="round"/>
<defs>
<linearGradient id="paint0_linear_157_446" x1="36.934" y1="0" x2="67.3423" y2="49.6601" gradientUnits="userSpaceOnUse">
<stop stop-color="#FFBF77"/>
<stop offset="1" stop-color="#FF733C"/>
</linearGradient>
<linearGradient id="paint1_linear_157_446" x1="0" y1="0" x2="30.4083" y2="49.6601" gradientUnits="userSpaceOnUse">
<stop stop-color="#FFBF77"/>
<stop offset="1" stop-color="#FF733C"/>
</linearGradient>
<linearGradient id="paint2_linear_157_446" x1="126.977" y1="18" x2="127.002" y2="19.4221" gradientUnits="userSpaceOnUse">
<stop stop-color="#FFBF77"/>
<stop offset="1" stop-color="#FF733C"/>
</linearGradient>
</defs>
</svg>
