<svg width="24" height="24" viewBox="0 0 24 24" fill="none" xmlns="http://www.w3.org/2000/svg">
<g id="Group">
<path id="Vector" d="M24 11.2596C24 11.7594 24 12.2593 24 12.7592C23.9875 12.8217 23.9688 12.8779 23.9625 12.9404C23.8188 14.8086 23.2813 16.5519 22.3 18.1453C20.3938 21.2445 17.65 23.144 14.0687 23.8188C13.6312 23.9 13.1937 23.9438 12.75 24C12.25 24 11.75 24 11.25 24C11.2 23.9875 11.1438 23.9688 11.0938 23.9625C8.6125 23.7688 6.39375 22.894 4.4625 21.3194C2.15 19.4324 0.7125 17.0143 0.18125 14.0651C0.1 13.6277 0.05625 13.1903 0 12.7467C0 12.2468 0 11.7469 0 11.2471C0.0375 10.9534 0.06875 10.6597 0.10625 10.3661C0.48125 7.74798 1.5875 5.48607 3.4375 3.60531C5.23125 1.77454 7.4 0.631086 9.93125 0.181203C10.3687 0.106222 10.8063 0.0562354 11.25 0C11.75 0 12.25 0 12.75 0C13.1562 0.0562354 13.5687 0.0937255 13.975 0.162458C16.2312 0.549857 18.225 1.48711 19.9313 3.01172C22.0188 4.86748 23.325 7.17313 23.8188 9.93491C23.8938 10.3785 23.9375 10.8159 24 11.2596ZM22.7 12.0094C22.7 6.10466 17.9062 1.31216 12 1.31216C6.09375 1.31216 1.3 6.10466 1.3 12.0094C1.3 17.9141 6.09375 22.7066 12 22.7066C17.9062 22.7003 22.7 17.9141 22.7 12.0094Z" fill="#F7F7F7"/>
<path id="Vector_2" d="M11.1933 12.3088C10.6308 11.6903 10.0808 11.0717 9.52458 10.4593C9.48708 10.4218 9.44958 10.3781 9.41208 10.3344C9.17458 10.0407 9.18708 9.67203 9.44333 9.42834C9.71208 9.17841 10.0996 9.17841 10.3621 9.46583C10.8746 10.0157 11.3683 10.5718 11.8746 11.1279C11.9246 11.1841 11.9746 11.2466 12.0308 11.3216C12.5558 10.7155 13.0496 10.1407 13.5496 9.55956C13.9246 9.12842 14.2933 8.69728 14.6683 8.26615C14.9746 7.91624 15.3558 7.86 15.6496 8.10994C15.9558 8.36612 15.9496 8.75352 15.6371 9.12217C14.7621 10.1407 13.8871 11.1591 13.0058 12.1714C12.9808 12.2026 12.9558 12.2339 12.9183 12.2776C13.0746 12.4526 13.2246 12.6213 13.3808 12.7962C13.6746 13.1274 13.6808 13.5148 13.3933 13.7772C13.1058 14.0396 12.7121 13.9959 12.4058 13.6585C12.2933 13.5398 12.1871 13.4148 12.0558 13.2773C11.9308 13.4211 11.8183 13.5523 11.6996 13.6835C11.4183 13.9959 11.0308 14.0396 10.7433 13.7897C10.4558 13.5398 10.4496 13.1586 10.7183 12.8337C10.8871 12.6588 11.0371 12.49 11.1933 12.3088Z" fill="#F7F7F7"/>
<path id="Vector_3" d="M12.6495 4.24918C12.6495 4.54285 12.6557 4.84278 12.6495 5.13645C12.6432 5.55509 12.3745 5.84251 11.9934 5.83627C11.6185 5.83627 11.3498 5.54884 11.3436 5.1302C11.3373 4.52411 11.3373 3.91177 11.3436 3.30568C11.3498 2.88703 11.6247 2.59961 11.9934 2.59961C12.3683 2.59961 12.637 2.89328 12.6432 3.31192C12.6557 3.63059 12.6495 3.94301 12.6495 4.24918Z" fill="#F7F7F7"/>
<path id="Vector_4" d="M4.21218 11.3534C4.51835 11.3534 4.81827 11.3471 5.12444 11.3534C5.54933 11.3596 5.83051 11.622 5.83051 12.0032C5.83051 12.3843 5.54933 12.653 5.13069 12.6593C4.52459 12.6655 3.91225 12.6655 3.30616 12.6593C2.88752 12.653 2.59385 12.3843 2.59385 12.0157C2.5876 11.6408 2.88127 11.3659 3.29991 11.3596C3.60608 11.3534 3.90601 11.3534 4.21218 11.3534Z" fill="#F7F7F7"/>
<path id="Vector_5" d="M12.6501 19.8199C12.6501 20.1136 12.6563 20.4135 12.6501 20.7072C12.6438 21.1258 12.3689 21.4132 11.994 21.407C11.6253 21.4007 11.3566 21.1195 11.3504 20.7134C11.3441 20.0948 11.3441 19.4825 11.3504 18.8639C11.3566 18.4452 11.6316 18.1641 12.0065 18.1641C12.3751 18.1703 12.6376 18.4452 12.6501 18.8514C12.6563 19.1825 12.6501 19.5012 12.6501 19.8199Z" fill="#F7F7F7"/>
<path id="Vector_6" d="M19.7742 12.6588C19.468 12.6588 19.1681 12.6651 18.8619 12.6588C18.4433 12.6526 18.1621 12.3777 18.1621 12.0028C18.1684 11.6341 18.4495 11.3654 18.8494 11.3592C19.4618 11.3529 20.0804 11.3529 20.6989 11.3592C21.1176 11.3654 21.405 11.6466 21.3988 12.0153C21.3925 12.3839 21.1113 12.6463 20.7052 12.6588C20.399 12.6651 20.0866 12.6588 19.7742 12.6588Z" fill="#F7F7F7"/>
<path id="Vector_7" d="M16.8815 7.84757C16.5379 7.82258 16.3379 7.70386 16.2317 7.46017C16.1192 7.22274 16.138 6.9728 16.3254 6.78535C16.8003 6.29173 17.2814 5.80435 17.7813 5.32948C18.0312 5.09204 18.4061 5.11703 18.6498 5.36072C18.8935 5.59816 18.931 5.97306 18.6936 6.22924C18.2249 6.72911 17.7313 7.21024 17.2377 7.68512C17.1252 7.77884 16.9565 7.81008 16.8815 7.84757Z" fill="#F7F7F7"/>
<path id="Vector_8" d="M16.8998 16.1709C16.9872 16.2209 17.1684 16.2771 17.2872 16.3896C17.7433 16.827 18.1869 17.2769 18.6306 17.7267C18.9117 18.0142 18.9055 18.4078 18.6368 18.664C18.3744 18.9202 17.9995 18.9139 17.7183 18.6328C17.2622 18.1829 16.8123 17.733 16.3624 17.2769C16.1625 17.0769 16.1125 16.827 16.2249 16.5645C16.3312 16.3146 16.5374 16.1959 16.8998 16.1709Z" fill="#F7F7F7"/>
<path id="Vector_9" d="M5.86904 18.8572C5.55662 18.8322 5.35668 18.7197 5.24421 18.4948C5.11924 18.2574 5.12549 18.0074 5.30669 17.82C5.79406 17.3076 6.29393 16.8015 6.81255 16.3141C7.04374 16.0954 7.41239 16.1392 7.64358 16.3641C7.88102 16.5953 7.93101 16.9702 7.70607 17.2139C7.21869 17.7325 6.71257 18.2261 6.20021 18.7197C6.09398 18.801 5.94402 18.826 5.86904 18.8572Z" fill="#F7F7F7"/>
<path id="Vector_10" d="M7.08661 7.8415C7.01163 7.80401 6.84917 7.75402 6.7367 7.6478C6.26807 7.20416 5.81194 6.74178 5.36206 6.27941C5.09338 5.99823 5.09963 5.61708 5.35581 5.36089C5.61199 5.10471 5.99939 5.09846 6.27432 5.37339C6.73045 5.81703 7.18033 6.27316 7.63022 6.72929C7.83641 6.93548 7.89265 7.19167 7.76768 7.46035C7.64896 7.70403 7.44277 7.829 7.08661 7.8415Z" fill="#F7F7F7"/>
</g>
</svg>
