<svg width="26" height="26" viewBox="0 0 26 26" fill="none" xmlns="http://www.w3.org/2000/svg">
<path d="M1.33394 26C1.58652 26 1.8391 26 2.09168 26C2.58106 25.8342 2.92835 25.4868 3.28354 25.1315C6.44869 21.9575 9.61384 18.7914 12.7869 15.6253C12.8579 15.5542 12.929 15.491 13.0316 15.3963C13.1105 15.491 13.1736 15.57 13.2447 15.6411C16.4256 18.823 19.6066 21.997 22.7796 25.1868C23.119 25.5263 23.4584 25.8421 23.9162 26C24.1688 26 24.4214 26 24.674 26C25.0213 25.8737 25.3685 25.7394 25.5817 25.4236C25.7474 25.1789 25.8579 24.8946 26 24.6262C26 24.4367 26 24.2551 26 24.0656C25.8816 23.5603 25.5659 23.1892 25.2028 22.8339C21.9982 19.6441 18.8015 16.4385 15.6047 13.2408C15.5337 13.1698 15.439 13.1303 15.3048 13.0355C15.4548 12.9171 15.5416 12.8618 15.6126 12.7908C18.8015 9.60097 21.9982 6.40328 25.1949 3.21348C25.5501 2.85818 25.8737 2.48709 26 1.98178C26 1.79229 26 1.61069 26 1.4212C25.8658 0.947464 25.6448 0.521106 25.1949 0.28424C24.9581 0.157911 24.6818 0.0947464 24.4214 0C24.3503 0 24.2872 0 24.2162 0C23.6005 0.0789554 23.1743 0.450046 22.748 0.876405C19.575 4.0662 16.3862 7.2481 13.2052 10.43C13.1421 10.4932 13.071 10.5563 12.9447 10.6748C12.8816 10.58 12.8342 10.4853 12.7632 10.4142C9.59016 7.23231 6.40923 4.0662 3.24408 0.876405C2.82574 0.457942 2.39951 0.0789554 1.77596 0C1.70492 0 1.64177 0 1.57073 0C1.2629 0.126329 0.939283 0.213181 0.65513 0.386883C0.276259 0.615854 0.12629 1.01852 2.07578e-07 1.4212C2.07578e-07 1.61069 2.07578e-07 1.79229 2.07578e-07 1.98178C0.12629 2.49499 0.457802 2.86608 0.820886 3.22928C4.01761 6.41907 7.20644 9.60887 10.4032 12.7987C10.4742 12.8697 10.5689 12.9013 10.6952 12.9803C10.5373 13.1145 10.4663 13.1698 10.3953 13.2329C7.19854 16.4306 4.00182 19.6283 0.797205 22.826C0.434121 23.1813 0.118397 23.5524 2.07578e-07 24.0577C2.07578e-07 24.2472 2.07578e-07 24.4288 2.07578e-07 24.6183C0.205222 25.3289 0.631451 25.7947 1.33394 26Z" fill="#F7F7F7"/>
</svg>
