<svg width="16" height="16" viewBox="0 0 16 16" fill="none" xmlns="http://www.w3.org/2000/svg">
<path d="M0.820887 16C0.976321 16 1.13175 16 1.28719 16C1.58834 15.898 1.80206 15.6842 2.02064 15.4655C3.96843 13.5123 5.91621 11.5639 7.86885 9.61555C7.91257 9.57182 7.95628 9.53295 8.01943 9.47464C8.068 9.53295 8.10686 9.58154 8.15058 9.62527C10.1081 11.5834 12.0656 13.5366 14.0182 15.4995C14.2271 15.7085 14.4359 15.9028 14.7177 16C14.8731 16 15.0285 16 15.184 16C15.3977 15.9223 15.6114 15.8397 15.7426 15.6453C15.8446 15.4947 15.9126 15.3198 16 15.1546C16 15.038 16 14.9262 16 14.8096C15.9271 14.4986 15.7328 14.2703 15.5094 14.0516C13.5373 12.0887 11.5701 10.116 9.60291 8.14819C9.5592 8.10446 9.50091 8.08017 9.41834 8.02186C9.51063 7.94898 9.56406 7.91497 9.60777 7.87124C11.5701 5.90829 13.5373 3.94048 15.5046 1.97753C15.7231 1.75888 15.9223 1.53052 16 1.21956C16 1.10295 16 0.991193 16 0.874582C15.9174 0.583055 15.7814 0.320681 15.5046 0.174917C15.3588 0.0971761 15.1888 0.0583055 15.0285 0C14.9848 0 14.946 0 14.9022 0C14.5234 0.0485879 14.2611 0.276951 13.9988 0.539326C12.0461 2.50228 10.0838 4.46037 8.12629 6.41846C8.08743 6.45733 8.04372 6.4962 7.966 6.56909C7.92714 6.51078 7.898 6.45248 7.85428 6.40875C5.90164 4.45065 3.94414 2.50228 1.99636 0.539326C1.73892 0.28181 1.47662 0.0485879 1.0929 0C1.04918 0 1.01032 0 0.966606 0C0.777171 0.0777407 0.578021 0.131189 0.403157 0.238082C0.170006 0.378987 0.0777178 0.626784 9.53674e-07 0.874582C9.53674e-07 0.991193 9.53674e-07 1.10295 9.53674e-07 1.21956C0.0777178 1.53538 0.281725 1.76374 0.505161 1.98725C2.47237 3.9502 4.43473 5.91315 6.40194 7.8761C6.44566 7.91983 6.50395 7.93927 6.58166 7.98785C6.48452 8.07045 6.4408 8.10446 6.39709 8.14333C4.42987 10.1111 2.46266 12.079 0.490588 14.0468C0.267152 14.2654 0.0728607 14.4938 9.53674e-07 14.8047C9.53674e-07 14.9213 9.53674e-07 15.0331 9.53674e-07 15.1497C0.126291 15.587 0.388586 15.8737 0.820887 16Z" fill="#F7F7F7"/>
</svg>
