<svg width="35" height="36" viewBox="0 0 35 36" fill="none" xmlns="http://www.w3.org/2000/svg">
<path d="M26.5463 14.2845C25.7622 15.0638 24.8735 15.947 23.9848 16.8301C19.4681 21.3083 14.9514 25.7866 10.4556 30.2648C9.83877 30.8778 9.13826 31.2934 8.28093 31.4908C6.28396 31.9584 4.30791 32.4779 2.31095 32.9559C1.24451 33.2156 0.261708 32.6441 0.0421462 31.6467C-0.0205857 31.3765 -0.0101297 31.0752 0.0526021 30.8051C0.533546 28.7062 1.02495 26.6074 1.51634 24.5189C1.66272 23.8955 1.96592 23.3552 2.4155 22.9085C7.85226 17.4951 13.289 12.0818 18.7258 6.66844C18.7676 6.62688 18.8199 6.58532 18.914 6.5022C21.4442 9.08938 23.9743 11.6662 26.5463 14.2845Z" fill="#F7F7F7"/>
<path d="M20.7018 4.79776C22.061 3.41585 23.3993 2.01316 24.8003 0.672813C25.1348 0.350714 25.6576 0.16369 26.1176 0.0597872C27.0168 -0.137628 27.8114 0.16369 28.4701 0.818278C29.7247 2.06511 30.9793 3.32233 32.234 4.56917C33.4154 5.74327 33.4677 7.28103 32.3281 8.51747C31.6903 9.20323 31.0107 9.84743 30.3416 10.5124C29.6933 11.167 29.0347 11.8112 28.3969 12.445C25.8249 9.88899 23.2842 7.36416 20.7018 4.79776Z" fill="#F7F7F7"/>
<path d="M22.0395 36.0003C18.1815 36.0003 14.334 36.0003 10.476 36.0003C9.62908 36.0003 9.07495 35.5119 9.07495 34.7638C9.07495 34.1508 9.47225 33.6624 10.0787 33.5481C10.2355 33.517 10.3923 33.5066 10.5491 33.5066C18.2024 33.5066 25.8662 33.5066 33.5195 33.5066C33.7495 33.5066 33.9899 33.5274 34.2095 33.6001C34.7636 33.7975 35.0773 34.3794 34.9832 34.982C34.8996 35.5223 34.4186 35.9483 33.8436 35.9899C33.6972 36.0003 33.5613 36.0003 33.4149 36.0003C29.6196 36.0003 25.8348 36.0003 22.0395 36.0003Z" fill="#F7F7F7"/>
</svg>
