<svg width="31" height="31" viewBox="0 0 31 31" fill="none" xmlns="http://www.w3.org/2000/svg">
<g id="Group 1441">
<rect id="Rectangle 1322" width="30" height="30" transform="matrix(1 -5.80934e-05 -4.98407e-05 1 1 0.00512695)" fill="#22C55E"/>
<g id="Group">
<path id="Vector" d="M13.2607 21.7937C12.6496 21.7937 12.0386 21.8183 11.4275 21.7888C10.1568 21.7249 9.09953 20.668 9.02193 19.3652C8.96858 18.5197 8.99283 17.6741 9.26442 16.8482C9.96766 14.7196 11.8688 13.3087 14.1143 13.2743C14.8515 13.2645 15.5935 13.2301 16.3259 13.2792C17.5771 13.3579 18.7023 13.8101 19.648 14.6655C19.9293 14.9212 20.1379 15.2309 20.167 15.6291C20.1767 15.7569 20.167 15.8896 20.1379 16.0125C20.0651 16.3271 20.036 16.3419 19.7208 16.3714C17.7808 16.5336 16.03 18.1608 15.7293 20.1272C15.6614 20.5598 15.6808 21.0072 15.6857 21.4447C15.6857 21.6119 15.6469 21.7053 15.4965 21.7348C15.351 21.7642 15.2007 21.7987 15.0503 21.7987C14.4538 21.8036 13.8524 21.8036 13.2559 21.8036C13.2607 21.8036 13.2607 21.7987 13.2607 21.7937Z" fill="#F7F7F7"/>
<path id="Vector_2" d="M18.4258 9.35614C18.4306 11.2095 16.9611 12.7138 15.1376 12.7187C13.3043 12.7236 11.8154 11.2242 11.8105 9.37088C11.8105 7.51755 13.2946 6.00833 15.123 6.00342C16.9466 6.00342 18.4209 7.5028 18.4258 9.35614Z" fill="#F7F7F7"/>
<path id="Vector_3" d="M19.7357 21.351C20.1867 20.8742 20.6038 20.4366 21.016 20.004C21.3798 19.6255 21.7387 19.2421 22.1024 18.8635C22.5486 18.4014 23.2276 18.3818 23.6641 18.8144C24.1054 19.2519 24.1151 19.9254 23.6689 20.3973C22.6407 21.4838 21.6126 22.5653 20.5795 23.6468C20.1285 24.1187 19.4689 24.1187 19.0082 23.6665C18.4941 23.165 17.9849 22.6587 17.4756 22.1474C17.01 21.6804 16.9906 21.002 17.432 20.5497C17.8636 20.1024 18.5474 20.1073 19.0082 20.5694C19.2507 20.8201 19.4835 21.0856 19.7357 21.351Z" fill="#F7F7F7"/>
</g>
</g>
</svg>
