<svg width="31" height="31" viewBox="0 0 31 31" fill="none" xmlns="http://www.w3.org/2000/svg">
<rect width="30" height="30" transform="matrix(1 -5.80934e-05 -4.98407e-05 1 0.998535 0.00170898)" fill="#22C55E"/>
<path d="M13.2588 21.7903C12.6478 21.7903 12.0367 21.8149 11.4256 21.7854C10.1549 21.7215 9.09764 20.6646 9.02004 19.3618C8.96669 18.5163 8.99094 17.6707 9.26253 16.8448C9.96577 14.7162 11.8669 13.3053 14.1124 13.2709C14.8496 13.2611 15.5916 13.2266 16.324 13.2758C17.5752 13.3545 18.7004 13.8067 19.6461 14.6621C19.9274 14.9177 20.136 15.2275 20.1651 15.6257C20.1748 15.7535 20.1651 15.8862 20.136 16.0091C20.0632 16.3237 20.0341 16.3385 19.7189 16.368C17.7789 16.5302 16.0281 18.1574 15.7274 20.1238C15.6595 20.5564 15.6789 21.0038 15.6838 21.4413C15.6838 21.6084 15.645 21.7018 15.4946 21.7313C15.3491 21.7608 15.1988 21.7952 15.0485 21.7952C14.4519 21.8002 13.8505 21.8002 13.254 21.8002C13.2588 21.8002 13.2588 21.7952 13.2588 21.7903Z" fill="#F7F7F7"/>
<path d="M18.4241 9.35272C18.4289 11.2061 16.9594 12.7104 15.1359 12.7153C13.3026 12.7202 11.8137 11.2208 11.8088 9.36747C11.8088 7.51413 13.2929 6.00492 15.1213 6C16.9449 6 18.4192 7.49938 18.4241 9.35272Z" fill="#F7F7F7"/>
<path d="M19.7333 21.3476C20.1844 20.8708 20.6015 20.4332 21.0137 20.0006C21.3775 19.6221 21.7363 19.2386 22.1001 18.8601C22.5463 18.398 23.2253 18.3783 23.6618 18.8109C24.1031 19.2485 24.1128 19.922 23.6666 20.3939C22.6384 21.4803 21.6103 22.5619 20.5772 23.6434C20.1262 24.1153 19.4666 24.1153 19.0059 23.663C18.4918 23.1616 17.9825 22.6553 17.4733 22.144C17.0077 21.677 16.9883 20.9986 17.4296 20.5463C17.8613 20.0989 18.5451 20.1039 19.0059 20.566C19.2484 20.8167 19.4811 21.0821 19.7333 21.3476Z" fill="#F7F7F7"/>
</svg>
