<svg width="31" height="31" viewBox="0 0 31 31" fill="none" xmlns="http://www.w3.org/2000/svg">
<rect width="30" height="30" transform="matrix(1 -5.80934e-05 -4.98407e-05 1 1 0.00170898)" fill="#E13E3D"/>
<path d="M12.4753 23.4382C12.3455 23.3671 12.2034 23.3124 12.0886 23.221C11.9026 23.073 11.817 22.8589 11.8058 22.6176C11.751 21.444 11.6984 20.2703 11.6442 19.0966C11.5745 17.5884 11.5036 16.0803 11.4341 14.5721C11.3769 13.3326 11.3207 12.093 11.2645 10.8536C11.2621 10.8002 11.2641 10.7465 11.2641 10.6848C14.7366 10.6846 18.196 10.6844 21.6732 10.6842C21.6572 11.0594 21.6426 11.4253 21.6258 11.7911C21.5662 13.0909 21.5058 14.3907 21.4455 15.6904C21.375 17.2152 21.3044 18.7397 21.2337 20.2644C21.2004 20.9829 21.1512 21.7011 21.1393 22.4199C21.1308 22.9329 20.9389 23.281 20.4558 23.4379C17.7957 23.4379 15.1355 23.438 12.4753 23.4382ZM15.8623 17.0433C15.8623 17.8505 15.8622 18.6576 15.8622 19.4648C15.8622 19.7778 15.8593 20.0907 15.8631 20.4038C15.8663 20.6778 15.9907 20.8047 16.2552 20.8118C16.3722 20.815 16.4892 20.8128 16.6062 20.8125C16.9617 20.8114 17.0693 20.6991 17.0693 20.3275C17.0695 18.801 17.0695 17.2746 17.0695 15.748C17.0696 15.0727 17.071 14.3972 17.069 13.7219C17.0681 13.4324 16.9391 13.3001 16.6606 13.2938C16.5543 13.2913 16.4478 13.2933 16.3414 13.2933C15.9744 13.2938 15.8627 13.4074 15.8626 13.7818C15.8624 14.8688 15.8624 15.956 15.8623 17.0433ZM13.5275 17.0558C13.5275 17.6708 13.5275 18.2856 13.5274 18.9007C13.5274 19.4058 13.5255 19.9109 13.5283 20.416C13.5298 20.6743 13.6509 20.8039 13.8971 20.8106C14.0723 20.8156 14.2483 20.8157 14.423 20.8037C14.5844 20.7926 14.6859 20.6949 14.7144 20.5276C14.7254 20.4633 14.7304 20.3971 14.7304 20.3316C14.7313 18.1464 14.7312 15.9612 14.7313 13.776C14.7313 13.7486 14.7323 13.721 14.7309 13.6937C14.7174 13.4303 14.5964 13.3038 14.3426 13.2944C14.2205 13.2898 14.098 13.293 13.9757 13.2936C13.6447 13.2951 13.528 13.4168 13.5279 13.7617C13.5275 14.8597 13.5276 15.9578 13.5275 17.0558ZM19.4044 17.0642C19.4045 15.9497 19.4052 14.8351 19.4041 13.7206C19.4038 13.429 19.2785 13.2994 18.9969 13.2937C18.8906 13.2915 18.7842 13.2932 18.6779 13.2934C18.3116 13.2939 18.2013 13.4068 18.2011 13.7839C18.2007 15.9637 18.2007 18.1434 18.2011 20.3231C18.2011 20.3833 18.2028 20.4441 18.2121 20.5033C18.2424 20.6942 18.3443 20.795 18.5316 20.8076C18.6692 20.8168 18.808 20.8127 18.9461 20.8123C19.2984 20.8118 19.4041 20.7034 19.4041 20.3422C19.4045 19.2494 19.4044 18.1567 19.4044 17.0642Z" fill="white"/>
<path d="M14.4337 7.43034C14.4337 7.21168 14.4316 7.01516 14.4343 6.8188C14.4371 6.62063 14.492 6.56427 14.6836 6.56409C15.875 6.56319 17.0663 6.56313 18.2578 6.56388C18.4464 6.56404 18.5003 6.62205 18.5027 6.82303C18.5051 7.01905 18.5032 7.21524 18.5032 7.43011C18.5832 7.4301 18.6454 7.4301 18.7077 7.4301C19.7715 7.43003 20.8352 7.42981 21.899 7.43008C22.3801 7.43021 22.5619 7.61945 22.562 8.11893C22.5622 8.61742 22.562 9.11591 22.562 9.62564C18.497 9.62587 14.447 9.62611 10.3748 9.62635C10.3748 9.57147 10.3748 9.51875 10.3748 9.46586C10.3748 8.9991 10.3742 8.53235 10.375 8.06559C10.3758 7.63702 10.5754 7.43156 10.9945 7.43104C12.0688 7.42982 13.1433 7.43059 14.2176 7.43052C14.2808 7.43035 14.3442 7.43035 14.4337 7.43034Z" fill="white"/>
</svg>
