<svg width="31" height="31" viewBox="0 0 31 31" fill="none" xmlns="http://www.w3.org/2000/svg">
<rect width="30" height="30" transform="matrix(1 -5.80934e-05 -4.98407e-05 1 0.997009 0.00170898)" fill="#477CE3"/>
<path d="M9.29725 14.9556C9.29736 12.7434 9.29587 10.5306 9.29811 8.31846C9.29921 7.50176 9.70016 6.8794 10.4053 6.63084C10.6066 6.55968 10.8323 6.52886 11.0468 6.52779C13.233 6.52023 15.4192 6.52169 17.6053 6.52794C17.703 6.52846 17.8252 6.5805 17.8953 6.65005C19.511 8.25627 21.1226 9.86726 22.7293 11.4836C22.8026 11.5574 22.8573 11.6869 22.8573 11.791C22.8635 15.0896 22.8639 18.3883 22.8616 21.6869C22.861 22.7617 22.1409 23.477 21.0624 23.4776C17.7303 23.4794 14.3977 23.4796 11.0656 23.4782C10.0015 23.4777 9.28624 22.7598 9.2847 21.6919C9.28215 19.4463 9.28439 17.2012 9.2845 14.9556C9.28875 14.9556 9.293 14.9556 9.29725 14.9556ZM19.4544 15.0118C17.1881 15.0119 14.9456 15.012 12.6968 15.0122C12.6967 15.575 12.6967 16.1273 12.6967 16.6838C14.9561 16.6837 17.2023 16.6835 19.4543 16.6834C19.4544 16.1189 19.4544 15.5715 19.4544 15.0118ZM12.6965 20.0785C14.9496 20.0784 17.1974 20.0783 19.4488 20.0781C19.4489 19.5147 19.4489 18.9625 19.4489 18.4007C17.1932 18.4008 14.9513 18.4009 12.6966 18.4011C12.6966 18.9634 12.6965 19.5157 12.6965 20.0785ZM21.457 12.4464C19.957 10.9447 18.4282 9.41446 16.9298 7.91445C16.9297 9.38322 16.9297 10.9099 16.9296 12.4466C18.4722 12.4465 20.0031 12.4464 21.457 12.4464Z" fill="white"/>
</svg>
