<svg width="31" height="30" viewBox="0 0 31 30" fill="none" xmlns="http://www.w3.org/2000/svg">
<rect width="30" height="30" transform="matrix(1 -5.80934e-05 -4.98407e-05 1 1 0.000732422)" fill="#F07B3F"/>
<path d="M8 23.3582C8.08784 22.9906 8.17977 22.6241 8.26251 22.2553C8.46607 21.3475 8.66554 20.4389 8.85856 19.5664C9.97709 20.6887 11.1065 21.8222 12.233 22.9526C11.9482 23.0233 11.6215 23.1058 11.2943 23.1855C10.3946 23.4048 9.49455 23.6228 8.59469 23.8419C8.27832 23.919 8.16074 23.8699 8 23.5898C8 23.5126 8 23.4354 8 23.3582Z" fill="white"/>
<path d="M18.5029 9.88208C19.616 11.0013 20.751 12.1426 21.8714 13.2693C18.9992 16.1567 16.1112 19.0598 13.2339 21.9522C12.1176 20.8332 10.9809 19.6938 9.85693 18.567C12.7358 15.6752 15.6246 12.7732 18.5029 9.88208Z" fill="white"/>
<path d="M19.4258 8.94386C19.9353 8.41608 20.4267 7.85602 20.9728 7.35642C21.5123 6.86298 22.3641 6.88877 22.9007 7.3911C23.4744 7.9281 24.0265 8.48987 24.566 9.06188C24.9545 9.47386 24.985 10.139 24.6035 10.5453C24.0209 11.1657 23.3925 11.7426 22.7928 12.329C21.6815 11.2116 20.546 10.0701 19.4258 8.94386Z" fill="white"/>
</svg>
