<svg width="31" height="31" viewBox="0 0 31 31" fill="none" xmlns="http://www.w3.org/2000/svg">
<g id="Group 59">
<rect id="Rectangle 1321" width="30" height="30" transform="matrix(1 -5.80934e-05 -4.98407e-05 1 1 0.00866699)" fill="#E13E3D"/>
<path id="Vector" d="M6.99805 15.724C7.10728 15.4308 7.1983 15.0957 7.34394 14.8444C7.68983 14.279 8.18136 14.0277 8.78212 14.0067C8.81853 14.0067 8.85494 14.0067 8.89135 14.0067C13.6428 14.0067 18.376 14.0067 23.1275 14.0067C23.619 14.0067 24.0559 14.1533 24.4382 14.5303C25.1846 15.2633 25.1846 16.7502 24.4382 17.4832C24.0742 17.8392 23.6736 18.0067 23.2003 18.0067C18.4125 18.0067 13.6064 18.0067 8.81853 18.0067C7.90829 18.0067 7.23471 17.3784 7.03446 16.3523C7.03446 16.3313 7.01625 16.3104 6.99805 16.2894C6.99805 16.101 6.99805 15.9125 6.99805 15.724Z" fill="#F7F7F7"/>
</g>
</svg>
