<svg width="31" height="31" viewBox="0 0 31 31" fill="none" xmlns="http://www.w3.org/2000/svg">
<g id="Group 58">
<rect id="Rectangle 1321" width="30" height="30" transform="matrix(1 -5.80934e-05 -4.98407e-05 1 1 0.00177002)" fill="#477CE3"/>
<path id="Vector" d="M15.8134 22.9956C15.6172 22.9164 15.4043 22.8663 15.229 22.7536C14.799 22.4782 14.5945 22.0609 14.5945 21.5518C14.5945 19.8993 14.5945 18.251 14.5945 16.5985C14.5945 16.536 14.5945 16.4775 14.5945 16.4024C14.5194 16.4024 14.4567 16.4024 14.3983 16.4024C12.7411 16.4024 11.084 16.4066 9.43097 16.4024C8.63787 16.4024 8.01173 15.7932 7.99921 15.0254C7.98669 14.245 8.6003 13.6066 9.38506 13.594C9.81917 13.5857 10.2491 13.594 10.6832 13.594C11.923 13.594 13.1627 13.594 14.4025 13.594C14.4609 13.594 14.5152 13.594 14.5945 13.594C14.5945 13.5231 14.5945 13.4647 14.5945 13.4021C14.5945 11.7413 14.5903 10.0804 14.5945 8.41961C14.5945 7.65179 15.1872 7.03002 15.9344 7.00081C16.74 6.9716 17.3996 7.58919 17.4037 8.39457C17.4121 9.4837 17.4079 10.5728 17.4079 11.6578C17.4079 12.242 17.4079 12.8262 17.4079 13.4063C17.4079 13.4605 17.4079 13.5189 17.4079 13.5899C17.4831 13.5899 17.5457 13.5899 17.6041 13.5899C19.2237 13.5899 20.8433 13.5899 22.4629 13.5899C23.2894 13.5899 23.7694 13.9654 23.9782 14.7666C23.9823 14.7833 23.9907 14.7958 23.999 14.8084C23.999 14.9335 23.999 15.0587 23.999 15.1839C23.9907 15.1964 23.9823 15.2131 23.9782 15.2257C23.7694 16.0269 23.2852 16.4024 22.4629 16.4024C20.8433 16.4024 19.2237 16.4024 17.6041 16.4024C17.5415 16.4024 17.4831 16.4024 17.4079 16.4024C17.4079 16.4775 17.4079 16.5401 17.4079 16.6027C17.4079 18.2552 17.4079 19.9035 17.4079 21.556C17.4079 22.1903 17.0448 22.7119 16.4729 22.9164C16.3811 22.9497 16.2851 22.9706 16.189 22.9998C16.0638 22.9956 15.9386 22.9956 15.8134 22.9956Z" fill="#F7F7F7"/>
</g>
</svg>
