<svg width="98" height="46" viewBox="0 0 98 46" fill="none" xmlns="http://www.w3.org/2000/svg">
<rect width="97" height="46" transform="translate(0.79834)" fill="#1A1A1A"/>
<path d="M0.79834 36.3032C0.954353 35.9072 1.08636 35.4872 1.27838 35.1151C1.63841 34.4191 2.14246 34.3471 2.70651 34.9111C5.61076 37.8034 8.50301 40.7076 11.4073 43.5999C11.5993 43.7919 11.7913 43.9719 11.9713 44.1759C12.4154 44.644 12.3553 45.16 11.7793 45.46C11.3473 45.688 10.8672 45.8201 10.4112 46.0001C10.0511 46.0001 9.69112 46.0001 9.33108 46.0001C8.16698 45.7481 7.33891 44.992 6.53484 44.1639C5.25073 42.8318 3.93061 41.5117 2.5985 40.2276C1.78243 39.4355 1.05036 38.6194 0.79834 37.4673C0.79834 37.0833 0.79834 36.6873 0.79834 36.3032Z" fill="white"/>
<path d="M46.6542 17.4854C46.6422 18.3255 46.3662 19.1655 45.7181 19.8496C44.566 21.0377 43.4139 22.2378 42.1898 23.3659C40.6897 24.758 38.5295 24.638 37.0294 23.1379C34.7972 20.9057 32.565 18.6735 30.3328 16.4413C28.1006 14.2091 25.8564 11.9769 23.6362 9.74471C22.3281 8.43659 22.1121 6.58843 23.0601 5.1123C23.2402 4.83628 23.4562 4.58426 23.6842 4.35624C24.6683 3.36015 25.6644 2.36407 26.6605 1.36798C28.3046 -0.252163 30.4888 -0.276166 32.1209 1.35598C36.5733 5.79636 41.0137 10.2488 45.4541 14.6891C46.2222 15.4212 46.6542 16.3093 46.6542 17.4854Z" fill="white"/>
<path d="M18.428 45.8682C17.0598 45.8442 16.1838 45.4001 15.4277 44.6441C12.4634 41.6678 9.48717 38.6916 6.51091 35.7273C5.07079 34.2872 3.63066 32.8471 2.19054 31.4069C0.498389 29.7148 0.498389 27.5426 2.17854 25.8504C3.15062 24.8784 4.1227 23.8943 5.09479 22.9342C6.75093 21.29 8.94713 21.278 10.5913 22.9222C15.0197 27.3386 19.436 31.767 23.8644 36.1954C25.5326 37.8635 25.5326 40.0477 23.8764 41.7278C22.8803 42.7359 21.8603 43.732 20.8642 44.7401C20.1081 45.4842 19.208 45.8682 18.428 45.8682Z" fill="white"/>
<path d="M22.3644 31.0348C21.9804 30.8188 21.5844 30.6988 21.3323 30.4467C19.6522 28.8026 17.996 27.1344 16.3399 25.4663C15.7278 24.8542 15.7278 23.9902 16.3399 23.3781C18.9441 20.7619 21.5604 18.1457 24.1766 15.5414C24.8126 14.9174 25.6647 14.9294 26.3008 15.5534C27.9569 17.1976 29.6131 18.8417 31.2572 20.5099C31.8813 21.1459 31.8933 21.998 31.2572 22.634C28.665 25.2503 26.0607 27.8545 23.4445 30.4347C23.1685 30.7108 22.7605 30.8308 22.3644 31.0348Z" fill="white"/>
<path d="M37.3657 0C38.6738 0.0360031 39.5379 0.360033 40.2219 1.04409C42.0821 2.89225 43.9423 4.72841 45.7784 6.60058C46.9425 7.78868 47.1226 9.58884 46.2705 10.993C45.9224 11.569 45.4304 11.641 44.9504 11.161C41.8421 8.0647 38.7458 4.95643 35.6495 1.86016C35.1695 1.38012 35.2295 0.840074 35.8416 0.552049C36.4176 0.264024 37.0537 0.108009 37.3657 0Z" fill="white"/>
</svg>
