<svg width="12" height="6" viewBox="0 0 12 6" fill="none" xmlns="http://www.w3.org/2000/svg">
<path d="M5.98388 1.68042C5.49868 2.11848 5.02414 2.54827 4.54428 2.9822C3.54721 3.88311 2.55015 4.78403 1.55309 5.68907C1.34515 5.87917 1.09455 5.98662 0.769302 5.95769C0.438725 5.92877 0.198792 5.79239 0.0708268 5.5527C-0.0624703 5.30474 -0.00382052 5.07331 0.214787 4.87081C0.577355 4.53607 0.950587 4.20133 1.31849 3.87071C2.63546 2.67638 3.95777 1.48619 5.26941 0.291856C5.51468 0.0686936 5.80793 -0.0594177 6.18116 0.0273676C6.35711 0.0686939 6.5384 0.155479 6.66103 0.262927C8.3779 1.8044 10.0841 3.35 11.785 4.89974C12.1049 5.19316 12.0622 5.60229 11.6943 5.84198C11.3158 6.08581 10.8039 6.04448 10.468 5.73866C9.01773 4.42862 7.57278 3.11858 6.12251 1.80853C6.08519 1.76307 6.0372 1.72588 5.98388 1.68042Z" fill="url(#paint0_linear_479_950)"/>
<defs>
<linearGradient id="paint0_linear_479_950" x1="0" y1="6" x2="9.95901" y2="-2.41537" gradientUnits="userSpaceOnUse">
<stop stop-color="#FFBF77"/>
<stop offset="1" stop-color="#FF733C"/>
</linearGradient>
</defs>
</svg>
