<svg width="20" height="20" viewBox="0 0 20 20" fill="none" xmlns="http://www.w3.org/2000/svg">
<path d="M19.9999 19.9936C19.9217 19.9936 19.8434 19.9996 19.7652 19.9996C13.4844 19.9996 7.20366 19.9996 0.928125 19.9996C0.802927 19.9996 0.67773 20.0056 0.557748 19.9696C0.197805 19.8614 -0.036941 19.4526 0.00479158 19.0318C0.0517407 18.617 0.349085 18.2984 0.719462 18.2744C0.802927 18.2684 0.886392 18.2744 0.975074 18.2744C6.73417 18.2744 12.4933 18.2744 18.2524 18.2744C18.3358 18.2744 18.4193 18.2744 18.5236 18.2744C18.5288 18.1782 18.5341 18.1001 18.5341 18.0219C18.4871 16.0262 18.4767 14.0304 18.3776 12.0407C18.2993 10.4537 18.1115 8.87876 17.9915 7.2978C17.8872 5.93324 17.8142 4.56266 17.7255 3.19209C17.7203 3.15001 17.7307 3.10192 17.7359 3.02979C18.4923 3.02979 19.2487 3.02979 19.9999 3.02979C19.9999 8.68039 19.9999 14.337 19.9999 19.9936Z" fill="url(#paint0_linear_477_944)"/>
<path d="M11.2465 0C11.2465 0.601128 11.2413 1.1722 11.2465 1.73726C11.2726 4.0516 11.4395 6.34792 11.6743 8.64423C11.9455 11.3253 12.0864 14.0243 12.0916 16.7234C12.0916 16.7835 12.0864 16.8376 12.0812 16.9218C11.9925 16.9218 11.9194 16.9218 11.8412 16.9218C8.45564 16.9218 5.0753 16.9158 1.68975 16.9278C1.13679 16.9278 0.568183 16.8376 0.0100098 17.0901C0.0100098 16.9819 0.0100098 16.9037 0.0100098 16.8196C0.0100098 11.5477 0.0100098 6.27578 0.0100098 0.997872C0.0100098 0.33062 0.296921 0 0.870744 0C4.24587 0 7.6262 0 11.0013 0C11.0639 0 11.1265 0 11.2465 0Z" fill="url(#paint1_linear_477_944)"/>
<path d="M12.389 0.0119629C12.8898 0.0119629 13.3593 0.0119629 13.8601 0.0119629C13.8601 0.114155 13.8549 0.198313 13.8601 0.288482C13.9279 2.18805 13.9696 4.09362 14.0792 5.99319C14.1522 7.33371 14.3296 8.6622 14.4235 9.9967C14.5278 11.4514 14.6165 12.9122 14.6791 14.3729C14.7156 15.2085 14.6843 16.0501 14.6843 16.9097C14.2409 16.9097 13.761 16.9097 13.255 16.9097C13.255 16.8075 13.255 16.7113 13.255 16.6151C13.208 15.0883 13.1924 13.5554 13.1089 12.0285C13.0411 10.706 12.8898 9.38956 12.7907 8.06708C12.6707 6.49814 12.5507 4.92919 12.462 3.36025C12.4047 2.33833 12.4099 1.30439 12.3838 0.282471C12.389 0.198313 12.389 0.120166 12.389 0.0119629Z" fill="url(#paint2_linear_477_944)"/>
<path d="M15.0442 0.0119629C15.5241 0.0119629 15.9884 0.0119629 16.4736 0.0119629C16.4788 0.0660644 16.4892 0.126177 16.4892 0.180279C16.5414 1.82136 16.5675 3.46244 16.6509 5.10352C16.7187 6.38392 16.8387 7.65831 16.9639 8.93271C17.1987 11.3372 17.3343 13.7417 17.3499 16.1583C17.3499 16.4047 17.3499 16.6512 17.3499 16.9097C16.8648 16.9097 16.3953 16.9097 15.8945 16.9097C15.8945 16.8135 15.8945 16.7293 15.8945 16.6392C15.8789 14.4571 15.8006 12.275 15.6128 10.1049C15.4824 8.59006 15.305 7.08123 15.2216 5.56038C15.1172 3.74497 15.0859 1.91754 15.0286 0.102132C15.0338 0.078087 15.039 0.0600532 15.0442 0.0119629Z" fill="url(#paint3_linear_477_944)"/>
<defs>
<linearGradient id="paint0_linear_477_944" x1="0" y1="3.02979" x2="7.66861" y2="24.4208" gradientUnits="userSpaceOnUse">
<stop stop-color="#FFBF77"/>
<stop offset="1" stop-color="#FF733C"/>
</linearGradient>
<linearGradient id="paint1_linear_477_944" x1="0.0100098" y1="0" x2="10.7154" y2="17.9125" gradientUnits="userSpaceOnUse">
<stop stop-color="#FFBF77"/>
<stop offset="1" stop-color="#FF733C"/>
</linearGradient>
<linearGradient id="paint2_linear_477_944" x1="12.3838" y1="0.0119629" x2="19.4316" y2="2.29531" gradientUnits="userSpaceOnUse">
<stop stop-color="#FFBF77"/>
<stop offset="1" stop-color="#FF733C"/>
</linearGradient>
<linearGradient id="paint3_linear_477_944" x1="15.0286" y1="0.0119629" x2="22.097" y2="2.3103" gradientUnits="userSpaceOnUse">
<stop stop-color="#FFBF77"/>
<stop offset="1" stop-color="#FF733C"/>
</linearGradient>
</defs>
</svg>
