<svg width="20" height="20" viewBox="0 0 20 20" fill="none" xmlns="http://www.w3.org/2000/svg">
<path d="M16.0255 7.90494C15.4369 7.7995 14.966 7.5311 14.5147 7.18601C14.4264 7.11891 14.2891 7.09974 14.1713 7.06139C14.2106 7.16684 14.2204 7.31062 14.2891 7.38731C14.8188 7.96246 15.4565 8.36506 16.2413 8.50885C16.7024 8.59512 17.1635 8.72932 17.2518 9.25654C17.3401 9.78376 16.9477 10.0905 16.5356 10.3206C15.5742 10.8574 14.4951 11.0491 13.4159 11.1929C10.7671 11.538 8.11832 11.5284 5.49895 11.0012C4.979 10.8957 4.45904 10.7328 3.95871 10.5602C3.69383 10.4739 3.44857 10.3206 3.22293 10.1672C2.89919 9.94672 2.65393 9.65915 2.73241 9.23737C2.8109 8.81559 3.15426 8.68139 3.51725 8.57595C4.04701 8.41299 4.05682 8.42258 3.92928 7.87619C3.55649 6.28494 3.17388 4.6937 2.78147 3.10245C2.73241 2.91074 2.60488 2.70943 2.45772 2.56565C1.95739 2.07677 1.84948 1.34825 2.22227 0.753931C2.59507 0.159611 3.34066 -0.0992056 4.00777 0.14044C4.68468 0.380085 5.13596 1.05109 4.95937 1.73168C4.78279 2.40269 5.02805 2.97784 5.21445 3.58174C5.32236 3.93642 5.63629 4.10896 6.00909 4.10896C6.68601 4.11855 7.35311 4.11855 8.03003 4.10896C8.55979 4.09938 8.89334 3.75429 8.92278 3.24624C8.9424 2.84364 8.93259 2.4602 8.67752 2.08636C8.31453 1.53997 8.51074 0.763518 9.0405 0.341742C9.58007 -0.099205 10.3845 -0.118378 10.9339 0.312983C11.4931 0.744344 11.6893 1.5208 11.3263 2.11512C11.0909 2.50813 11.0713 2.90115 11.1007 3.32293C11.1301 3.78305 11.4637 4.09938 11.9346 4.10896C12.6213 4.12813 13.308 4.12813 13.9948 4.10896C14.4166 4.09938 14.7109 3.8789 14.8286 3.4763C14.9464 3.11204 15.0543 2.73819 15.1328 2.37393C15.1622 2.24932 15.123 2.09594 15.0739 1.96174C14.8581 1.27156 15.1524 0.552629 15.8097 0.226711C16.4375 -0.0896204 17.2224 0.0637526 17.6638 0.610144C18.1151 1.16612 18.1249 1.98091 17.6148 2.47938C17.3597 2.73819 17.242 3.02577 17.1635 3.35168C16.8201 4.78956 16.467 6.23701 16.1138 7.67488C16.0844 7.7324 16.0549 7.80909 16.0255 7.90494ZM9.99211 9.71666C10.3453 9.71666 10.6004 9.5537 10.7377 9.26613C10.9535 8.82518 11.2773 8.52802 11.7187 8.29796C12.376 7.94329 12.376 7.20518 11.7286 6.84092C11.2969 6.60127 10.983 6.30411 10.7377 5.87275C10.3747 5.2305 9.60951 5.24009 9.24652 5.88234C9.01107 6.30411 8.69714 6.61086 8.25567 6.84092C7.61799 7.18601 7.60818 7.92411 8.24586 8.27879C8.68733 8.51843 9.0405 8.8156 9.25633 9.26613C9.39367 9.56329 9.65856 9.70707 9.99211 9.71666Z" fill="url(#paint0_linear_477_935)"/>
<path d="M17.1743 13.166C17.3149 13.166 17.4439 13.166 17.5728 13.166C17.9831 13.1716 18.2937 13.4403 18.2996 13.8266C18.3054 15.3493 18.3054 16.8721 18.2996 18.3948C18.2996 18.7699 18.0065 19.0274 17.6138 19.0498C17.4673 19.0554 17.3267 19.0498 17.1801 19.0498C17.1567 19.1842 17.145 19.2961 17.1157 19.4025C17.016 19.744 16.682 19.9903 16.301 19.9959C15.8322 20.0015 15.3633 20.0015 14.9003 19.9959C14.3494 19.9903 13.9801 19.6432 13.9743 19.1114C13.9684 18.4956 13.9743 17.8798 13.9743 17.2696C13.9743 15.9092 13.9743 14.5488 13.9743 13.1828C13.9743 12.5334 14.3201 12.2031 14.9999 12.2031C15.3574 12.2031 15.7149 12.2031 16.0725 12.2031C16.7875 12.2087 17.0864 12.4606 17.1743 13.166Z" fill="url(#paint1_linear_477_935)"/>
<path d="M2.82107 19.0496C2.68042 19.0496 2.54562 19.0552 2.41082 19.0496C1.98884 19.0328 1.70752 18.7753 1.70166 18.3722C1.6958 16.8663 1.6958 15.3548 1.70166 13.8488C1.70166 13.429 2.00056 13.1714 2.44598 13.1658C2.56906 13.1658 2.69214 13.1658 2.80349 13.1658C2.82107 13.1379 2.8328 13.1267 2.83866 13.1155C2.92657 12.4493 3.21375 12.2085 3.92291 12.2085C4.30972 12.2085 4.69653 12.2029 5.08334 12.2085C5.65184 12.2141 6.01521 12.5668 6.02107 13.1043C6.02107 15.1028 6.02107 17.1014 6.02107 19.0944C6.02107 19.6486 5.6577 19.9957 5.07748 19.9957C4.66137 20.0013 4.24525 19.9957 3.82913 19.9957C3.23133 19.9957 2.91485 19.7214 2.85038 19.1504C2.84452 19.128 2.8328 19.1 2.82107 19.0496Z" fill="url(#paint2_linear_477_935)"/>
<path d="M13.6111 14.6885C13.6111 15.6962 13.6111 16.6815 13.6111 17.6947C11.2023 17.6947 8.80528 17.6947 6.38477 17.6947C6.38477 16.6927 6.38477 15.7074 6.38477 14.6885C8.78769 14.6885 11.1848 14.6885 13.6111 14.6885Z" fill="url(#paint3_linear_477_935)"/>
<path d="M1.33847 14.8789C1.33847 15.7578 1.33847 16.62 1.33847 17.5045C1.09231 17.4765 0.84616 17.4933 0.641031 17.4149C0.471068 17.3477 0.289383 17.1966 0.207332 17.0342C-0.073987 16.48 -0.0622648 15.9034 0.201471 15.338C0.324548 15.0692 0.553119 14.9237 0.875464 14.9181C1.02198 14.9181 1.17436 14.8957 1.33847 14.8789Z" fill="url(#paint4_linear_477_935)"/>
<path d="M18.6689 17.5045C18.6689 16.6199 18.6689 15.7578 18.6689 14.8733C18.9092 14.9013 19.1319 14.9125 19.3488 14.9573C19.5715 15.0021 19.718 15.1532 19.8059 15.3491C20.0638 15.909 20.0638 16.4744 19.8118 17.0342C19.6946 17.2861 19.4953 17.4485 19.1906 17.4653C19.0265 17.4653 18.8565 17.4877 18.6689 17.5045Z" fill="url(#paint5_linear_477_935)"/>
<defs>
<linearGradient id="paint0_linear_477_935" x1="2" y1="0" x2="6.4966" y2="14.9001" gradientUnits="userSpaceOnUse">
<stop stop-color="#FFBF77"/>
<stop offset="1" stop-color="#FF733C"/>
</linearGradient>
<linearGradient id="paint1_linear_477_935" x1="13.9717" y1="12.2031" x2="19.3155" y2="19.2309" gradientUnits="userSpaceOnUse">
<stop stop-color="#FFBF77"/>
<stop offset="1" stop-color="#FF733C"/>
</linearGradient>
<linearGradient id="paint2_linear_477_935" x1="1.69727" y1="12.2061" x2="7.03973" y2="19.2226" gradientUnits="userSpaceOnUse">
<stop stop-color="#FFBF77"/>
<stop offset="1" stop-color="#FF733C"/>
</linearGradient>
<linearGradient id="paint3_linear_477_935" x1="6.38477" y1="14.6885" x2="7.11389" y2="18.8367" gradientUnits="userSpaceOnUse">
<stop stop-color="#FFBF77"/>
<stop offset="1" stop-color="#FF733C"/>
</linearGradient>
<linearGradient id="paint4_linear_477_935" x1="0" y1="14.8789" x2="1.835" y2="17.093" gradientUnits="userSpaceOnUse">
<stop stop-color="#FFBF77"/>
<stop offset="1" stop-color="#FF733C"/>
</linearGradient>
<linearGradient id="paint5_linear_477_935" x1="18.6689" y1="14.8733" x2="20.5104" y2="17.0783" gradientUnits="userSpaceOnUse">
<stop stop-color="#FFBF77"/>
<stop offset="1" stop-color="#FF733C"/>
</linearGradient>
</defs>
</svg>
