<svg width="20" height="20" viewBox="0 0 20 20" fill="none" xmlns="http://www.w3.org/2000/svg">
<path d="M11.4937 1.53052C11.3086 2.573 11.4873 3.5251 12.0872 4.4109C11.8511 4.50129 11.6341 4.5736 11.4299 4.65797C10.7726 4.94119 10.2237 5.35095 9.74508 5.85712C8.90906 6.73691 8.06665 7.60464 7.23701 8.49045C6.50948 9.26779 6.31165 10.1656 6.72647 11.1298C7.14767 12.1 7.95816 12.6242 9.0686 12.6905C9.69403 12.7267 10.262 12.5459 10.7662 12.1964C10.8364 12.1482 10.9002 12.1 10.9895 12.0337C10.9895 13.9318 10.9895 15.8059 10.9895 17.7101C10.9066 17.7101 10.8172 17.7101 10.7343 17.7101C7.47953 17.7101 4.2184 17.7101 0.963659 17.7101C0.306329 17.7101 0.00638185 17.4208 0 16.7942C0 12.0096 0 7.23103 0 2.44646C0 1.80771 0.299947 1.53052 0.982805 1.53052C4.39071 1.53052 7.79862 1.53052 11.2065 1.53052C11.2959 1.53052 11.3852 1.53052 11.4937 1.53052ZM6.50948 15.7697C6.50948 14.7393 6.50948 13.727 6.50948 12.7146C4.88211 12.7146 3.26751 12.7146 1.6529 12.7146C1.6529 13.739 1.6529 14.7514 1.6529 15.7697C3.27389 15.7697 4.88211 15.7697 6.50948 15.7697ZM1.6529 3.0852C1.6529 3.60343 1.6529 4.10358 1.6529 4.60373C3.55469 4.60373 5.43733 4.60373 7.31998 4.60373C7.31998 4.09153 7.31998 3.59138 7.31998 3.0852C5.42457 3.0852 3.55469 3.0852 1.6529 3.0852ZM6.11381 6.1765C4.61408 6.1765 3.13349 6.1765 1.65928 6.1765C1.65928 6.6887 1.65928 7.18885 1.65928 7.68298C3.15263 7.68298 4.62684 7.68298 6.11381 7.68298C6.11381 7.1768 6.11381 6.68267 6.11381 6.1765ZM1.64652 10.7622C2.74419 10.7622 3.80996 10.7622 4.87573 10.7622C4.87573 10.25 4.87573 9.74986 4.87573 9.25574C3.79082 9.25574 2.71867 9.25574 1.64652 9.25574C1.64652 9.76191 1.64652 10.25 1.64652 10.7622Z" fill="url(#paint0_linear_477_929)"/>
<path d="M18.3542 12.9255C18.3542 15.2937 18.3542 17.6378 18.3542 19.9999C17.6713 19.9999 17.014 19.9999 16.312 19.9999C16.312 19.9156 16.312 19.8312 16.312 19.7408C16.312 17.921 16.312 16.1012 16.312 14.2813C16.312 13.733 15.8269 13.3654 15.2973 13.4919C14.9143 13.5823 14.6846 13.8836 14.6846 14.3054C14.6846 16.1072 14.6846 17.915 14.6846 19.7167C14.6846 19.8071 14.6846 19.8975 14.6846 19.9999C14.0017 19.9999 13.338 19.9999 12.6488 19.9999C12.6488 16.0228 12.6488 12.0457 12.6488 8.06862C12.6296 8.05657 12.6041 8.04452 12.585 8.03247C12.5403 8.09273 12.502 8.15298 12.4509 8.20722C11.6277 9.07495 10.798 9.94268 9.97479 10.8044C9.67484 11.1177 9.3047 11.2383 8.87711 11.1057C8.46867 10.9852 8.23255 10.7019 8.17511 10.2982C8.13682 10.021 8.21978 9.77396 8.41762 9.56908C9.33022 8.60493 10.2364 7.63476 11.1682 6.68869C11.7809 6.06802 12.5786 5.77275 13.4784 5.76672C14.6974 5.75467 15.9163 5.7607 17.1352 5.76672C18.7243 5.77878 19.9815 6.95985 19.9943 8.46031C20.0071 9.59318 19.9943 10.7321 19.9943 11.8649C19.9879 12.8713 19.3689 13.2871 18.3542 12.9255Z" fill="url(#paint1_linear_477_929)"/>
<path d="M15.495 4.61585C14.142 4.61585 13.0571 3.58542 13.0571 2.30793C13.0571 1.03043 14.1548 0 15.5014 0C16.8479 0 17.9456 1.03646 17.9456 2.31395C17.9392 3.58542 16.8479 4.61585 15.495 4.61585Z" fill="url(#paint2_linear_477_929)"/>
<defs>
<linearGradient id="paint0_linear_477_929" x1="0" y1="1.53052" x2="9.862" y2="18.9686" gradientUnits="userSpaceOnUse">
<stop stop-color="#FFBF77"/>
<stop offset="1" stop-color="#FF733C"/>
</linearGradient>
<linearGradient id="paint1_linear_477_929" x1="8.16602" y1="5.75977" x2="16.3494" y2="21.8559" gradientUnits="userSpaceOnUse">
<stop stop-color="#FFBF77"/>
<stop offset="1" stop-color="#FF733C"/>
</linearGradient>
<linearGradient id="paint2_linear_477_929" x1="13.0571" y1="0" x2="15.3169" y2="5.66454" gradientUnits="userSpaceOnUse">
<stop stop-color="#FFBF77"/>
<stop offset="1" stop-color="#FF733C"/>
</linearGradient>
</defs>
</svg>
