<svg width="20" height="20" viewBox="0 0 20 20" fill="none" xmlns="http://www.w3.org/2000/svg">
<g id="Group">
<path id="Vector" d="M5.98417 20.0001C5.66599 19.9168 5.33215 19.8699 5.02961 19.7345C3.84554 19.2084 3.17266 18.2866 3.06833 17.0001C2.95358 15.5522 3.30306 14.2188 4.23154 13.0782C5.29042 11.7761 6.66749 11.0938 8.34188 11.0574C9.41641 11.0366 10.4857 11.047 11.5603 11.0522C14.3092 11.073 16.6043 13.2032 16.839 15.9428C16.8912 16.547 16.9173 17.1563 16.7138 17.7397C16.2757 19.0001 15.3941 19.7449 14.0744 19.9584C14.0327 19.9636 13.9858 19.9793 13.944 19.9949C11.2942 20.0001 8.6392 20.0001 5.98417 20.0001Z" fill="white"/>
<path id="Vector_2" d="M10.4335 0C10.783 0.0625 11.1377 0.104167 11.482 0.192709C13.1355 0.619792 14.0848 1.84375 14.1005 3.55729C14.1109 4.74479 14.0588 5.92708 13.7145 7.07292C13.4172 8.05208 12.9164 8.89063 12.0245 9.44792C10.7987 10.2135 8.47747 10.2552 7.21516 8.85938C6.6153 8.19792 6.2919 7.40625 6.10411 6.54688C5.86417 5.44792 5.81201 4.32813 5.8746 3.20833C5.96328 1.66667 6.97521 0.541667 8.58179 0.161459C8.89476 0.088542 9.21817 0.0520833 9.54157 0C9.83367 0 10.1362 0 10.4335 0Z" fill="white"/>
<path id="Vector_3" d="M20 15.2708C19.9114 15.7083 19.7757 16.125 19.4941 16.4792C19.1341 16.9375 18.6803 17.2344 18.0909 17.3854C18.3256 14.5677 17.3241 12.3438 14.956 10.75C15.0134 10.7448 15.0603 10.7344 15.102 10.7344C15.7228 10.7448 16.3487 10.6979 16.9642 10.849C18.5395 11.2344 19.7601 12.5938 19.9635 14.2031C19.9687 14.2448 19.9896 14.2865 20 14.3333C20 14.6458 20 14.9583 20 15.2708Z" fill="white"/>
<path id="Vector_4" d="M13.7823 9.58313C14.8934 8.23938 15.2168 6.64563 15.3107 4.98417C15.3472 4.32271 15.3263 3.65604 15.3159 2.99459C15.3107 2.79146 15.2585 2.58834 15.2324 2.38C16.4634 2.26021 17.7623 3.1925 17.9605 4.42167C18.1587 5.68208 18.07 6.94771 17.5484 8.13521C16.912 9.5675 15.1907 10.2185 13.7823 9.58313Z" fill="white"/>
<path id="Vector_5" d="M4.74272 2.36475C4.55494 3.146 4.59145 3.90641 4.62275 4.66683C4.6697 5.87516 4.81575 7.06787 5.32172 8.18245C5.54601 8.68245 5.85898 9.14079 6.13544 9.63558C5.87463 9.75016 5.54601 9.78662 5.21739 9.80225C3.82989 9.85954 2.78144 9.13558 2.32764 7.771C1.97815 6.71891 1.91034 5.62516 2.04596 4.53141C2.1868 3.43245 3.0579 2.63558 4.24197 2.43246C4.39846 2.40121 4.56016 2.38558 4.74272 2.36475Z" fill="white"/>
<path id="Vector_6" d="M1.8373 17.354C0.971418 17.1873 0.183777 16.3227 0.0481563 15.4061C-0.285679 13.203 1.14877 11.1821 3.33956 10.8019C3.86639 10.7134 4.41409 10.7394 4.96179 10.7394C2.61973 12.3332 1.61301 14.5467 1.8373 17.354Z" fill="white"/>
</g>
</svg>
