<svg width="20" height="20" viewBox="0 0 20 20" fill="none" xmlns="http://www.w3.org/2000/svg">
<path d="M0.739583 13.1989C0.447917 12.5773 0.276042 11.9188 0.15625 11.2445C0.0885417 10.8705 0.0520833 10.4912 0 10.1171C0 9.72202 0 9.32691 0 8.93181C0.0520833 8.56304 0.0885417 8.18901 0.15625 7.82025C0.494792 5.96062 1.30208 4.33279 2.59896 2.96309C3.96875 1.50911 5.63021 0.571394 7.57812 0.192093C10.4219 -0.355785 13.0104 0.265846 15.2812 2.08859C17.2187 3.64267 18.3542 5.68668 18.7344 8.15213C18.901 9.23209 18.8646 10.3173 18.6562 11.392C18.6458 11.4552 18.625 11.5184 18.6042 11.5922C18.5521 11.5869 18.5104 11.5869 18.4687 11.5711C17.9844 11.4394 17.5052 11.3024 17.0208 11.176C16.8854 11.1391 16.8333 11.0917 16.8594 10.9337C17.0573 9.88533 17.026 8.84225 16.7969 7.79917C16.7552 7.62006 16.6823 7.55157 16.4948 7.55157C15.7865 7.56211 15.0781 7.55684 14.3646 7.55157C14.1979 7.55157 14.151 7.58845 14.1562 7.7781C14.1875 8.58411 14.1979 9.39539 14.2135 10.2014C14.2135 10.2541 14.2031 10.3015 14.1927 10.3753C14.1198 10.3594 14.0573 10.3489 13.9948 10.3331C13.526 10.2014 13.0573 10.0644 12.5833 9.94327C12.4271 9.90113 12.3802 9.83264 12.375 9.6746C12.3542 9.0319 12.3177 8.3892 12.2969 7.74122C12.2917 7.59372 12.2344 7.55157 12.0937 7.55157C10.2969 7.55684 8.5 7.55157 6.70312 7.55157C6.57812 7.55157 6.52083 7.59372 6.50521 7.73069C6.39583 8.92654 6.39583 10.1224 6.50521 11.3182C6.52083 11.4868 6.59896 11.5026 6.73437 11.5026C7.65625 11.4974 8.58333 11.5026 9.50521 11.4974C9.67708 11.4974 9.76042 11.5448 9.80208 11.7239C9.89062 12.1295 10 12.5246 10.1042 12.925C10.0573 12.8723 9.98958 12.8249 9.96875 12.7617C9.88021 12.5246 9.71354 12.4825 9.47917 12.4825C6.65104 12.4877 3.81771 12.4877 0.989583 12.4877C0.932292 12.4877 0.864583 12.4719 0.817708 12.493C0.760417 12.5194 0.6875 12.572 0.677083 12.6247C0.661458 12.7195 0.6875 12.8196 0.697917 12.9145C0.71875 13.0093 0.729167 13.1041 0.739583 13.1989ZM6.84896 5.67614C8.57812 5.67614 10.2448 5.67614 11.9375 5.67614C11.9219 5.58659 11.9167 5.5181 11.8958 5.44962C11.7865 5.09666 11.6875 4.7437 11.5573 4.40127C11.25 3.59526 10.8854 2.83139 10.2344 2.24137C9.73437 1.78305 9.21354 1.75144 8.68229 2.15708C8.60938 2.20976 8.54687 2.27825 8.47917 2.34146C7.86458 2.94202 7.51562 3.70589 7.22396 4.50137C7.08854 4.8754 6.97917 5.25997 6.84896 5.67614ZM3.39583 11.5026C3.76562 11.5026 4.13542 11.4974 4.51042 11.5026C4.65104 11.5026 4.69271 11.4499 4.67708 11.313C4.65625 11.1549 4.64062 10.9969 4.64062 10.8388C4.64583 9.81157 4.65625 8.78957 4.67708 7.7623C4.68229 7.60425 4.65104 7.55157 4.48958 7.55157C3.75521 7.55684 3.02083 7.55684 2.28125 7.55157C2.15104 7.55157 2.08333 7.59372 2.05208 7.73069C1.76562 8.93181 1.77083 10.1277 2.05208 11.3288C2.08333 11.4657 2.15104 11.5079 2.28125 11.5079C2.65104 11.4973 3.02083 11.5026 3.39583 11.5026ZM12.875 2.71023C12.8802 2.76291 12.8802 2.77871 12.8854 2.78925C13.3073 3.66375 13.6094 4.58039 13.8125 5.52864C13.8437 5.67614 13.9271 5.69195 14.0521 5.69195C14.6094 5.69195 15.1719 5.69195 15.7292 5.69195C15.7917 5.69195 15.849 5.67615 15.9531 5.66561C15.1823 4.3802 14.1771 3.41088 12.875 2.71023ZM2.86458 5.68141C2.98958 5.68668 3.0625 5.69195 3.13021 5.69195C3.66146 5.69195 4.19792 5.68141 4.72917 5.69722C4.91667 5.70248 4.98958 5.63927 5.02604 5.46015C5.21875 4.56985 5.5 3.71116 5.89062 2.88934C5.91146 2.85246 5.91667 2.81032 5.94792 2.7155C4.64062 3.42668 3.63542 4.38547 2.86458 5.68141Z" fill="url(#paint0_linear_452_86)"/>
<path d="M19.9951 16.9919C19.8597 17.1921 19.7503 17.4133 19.5889 17.5819C18.9118 18.2878 18.2243 18.9727 17.5368 19.6681C17.0993 20.1106 16.5889 20.1106 16.1462 19.6681C15.6201 19.1413 15.0993 18.6092 14.5732 18.0771C14.5212 18.0244 14.4639 17.9718 14.3857 17.898C14.1618 18.1298 13.9535 18.3511 13.7347 18.5723C13.1462 19.1623 12.3649 18.9569 12.141 18.1456C11.516 15.8751 10.8962 13.6098 10.2764 11.3393C10.1826 10.9968 10.2399 10.6808 10.4847 10.4226C10.7503 10.1381 11.0837 10.096 11.4378 10.1961C13.2243 10.6913 15.0107 11.1865 16.7972 11.6817C17.266 11.8134 17.7399 11.9346 18.2087 12.0715C18.9847 12.2928 19.193 13.0935 18.6253 13.6677C18.4535 13.8416 18.292 14.0207 18.1097 14.1787C17.9691 14.2999 17.9639 14.3842 18.1045 14.5212C18.5732 14.9795 19.0368 15.4431 19.4847 15.9172C19.6774 16.1227 19.8285 16.3703 20.0003 16.6021C19.9951 16.7285 19.9951 16.8602 19.9951 16.9919ZM13.4639 16.2069C13.4847 16.2175 13.5055 16.2228 13.5316 16.2333C13.7764 15.9804 14.0264 15.7328 14.2607 15.4694C14.3701 15.3483 14.4378 15.3641 14.542 15.4747C15.2399 16.1911 15.9482 16.9023 16.6514 17.6135C16.7087 17.6715 16.7764 17.7242 16.8545 17.7979C17.141 17.5082 17.4118 17.2237 17.693 16.9497C17.8128 16.8391 17.792 16.7654 17.6878 16.66C17.3962 16.3703 17.1097 16.0752 16.818 15.7802C16.4066 15.3641 15.9951 14.9373 15.5732 14.5264C15.4326 14.3895 15.4118 14.3052 15.568 14.1682C15.7764 13.9838 15.9691 13.7731 16.167 13.5729C16.2035 13.536 16.2347 13.4886 16.2868 13.4201C14.9899 13.0619 13.7243 12.709 12.4118 12.3455C12.7712 13.6783 13.1201 14.9426 13.4639 16.2069Z" fill="url(#paint1_linear_452_86)"/>
<path d="M0.739573 13.1988C0.729157 13.104 0.71874 13.0092 0.708323 12.9143C0.697906 12.8195 0.671865 12.7194 0.68749 12.6246C0.697907 12.5719 0.770823 12.5192 0.828115 12.4929C0.87499 12.4718 0.942698 12.4876 0.99999 12.4876C3.82811 12.4876 6.66145 12.4876 9.48957 12.4824C9.72395 12.4824 9.89061 12.5245 9.97916 12.7616C9.99999 12.8248 10.0677 12.8669 10.1146 12.9249C10.1458 13.0513 10.1771 13.1777 10.2135 13.3305C10.1354 13.341 10.0573 13.3569 9.97916 13.3569C9.02082 13.3569 8.0677 13.3569 7.10936 13.3569C6.85416 13.3569 6.84895 13.3621 6.91666 13.615C7.19791 14.6528 7.5677 15.659 8.2552 16.4966C8.45832 16.7442 8.74478 16.9549 9.03124 17.1024C9.45311 17.3184 9.84895 17.1341 10.1771 16.8496C10.4062 16.6494 10.5885 16.3965 10.7917 16.1647C10.8385 16.112 10.875 16.0488 10.9479 15.9435C11.2187 16.9023 11.4687 17.8136 11.7344 18.7566C11.4739 18.8093 11.2187 18.8725 10.9583 18.9199C10.2708 19.0411 9.57291 19.0832 8.8802 19.0411C7.78645 18.9726 6.72395 18.725 5.71353 18.2878C4.40103 17.7188 3.27082 16.8917 2.32811 15.8118C1.65624 15.0426 1.10416 14.1787 0.739573 13.1988ZM5.94791 16.3544C5.93749 16.2912 5.93749 16.2754 5.93228 16.2648C5.5052 15.3956 5.21353 14.4789 5.0052 13.536C4.97395 13.3885 4.89582 13.3621 4.77082 13.3674C4.18749 13.3674 3.59895 13.3674 3.01561 13.3674C2.97395 13.3674 2.93228 13.3779 2.85416 13.3937C3.60936 14.6844 4.63541 15.6379 5.94791 16.3544Z" fill="url(#paint2_linear_452_86)"/>
<defs>
<linearGradient id="paint0_linear_452_86" x1="0" y1="0" x2="5.10995" y2="17.2629" gradientUnits="userSpaceOnUse">
<stop stop-color="#FFBF77"/>
<stop offset="1" stop-color="#FF733C"/>
</linearGradient>
<linearGradient id="paint1_linear_452_86" x1="10.2338" y1="10.147" x2="15.2894" y2="22.0079" gradientUnits="userSpaceOnUse">
<stop stop-color="#FFBF77"/>
<stop offset="1" stop-color="#FF733C"/>
</linearGradient>
<linearGradient id="paint2_linear_452_86" x1="0.682617" y1="12.4819" x2="2.89387" y2="21.2791" gradientUnits="userSpaceOnUse">
<stop stop-color="#FFBF77"/>
<stop offset="1" stop-color="#FF733C"/>
</linearGradient>
</defs>
</svg>
